<svg width="197" height="131" viewBox="0 0 197 131" fill="none" xmlns="http://www.w3.org/2000/svg">
<g clip-path="url(#clip0_5_19)">
<rect width="197" height="130.419" fill="white"/>
<circle cx="92.6185" cy="63.4473" r="63.4473" fill="url(#paint0_linear_5_19)"/>
<path d="M153.135 64.8181C153.135 98.2368 126.044 125.328 92.6252 125.328C59.2065 125.328 32.1153 98.2368 32.1153 64.8181C32.1153 31.3994 59.2065 4.30814 92.6252 4.30814C126.044 4.30814 153.135 31.3994 153.135 64.8181Z" fill="#FFB756"/>
<mask id="mask0_5_19" style="mask-type:alpha" maskUnits="userSpaceOnUse" x="32" y="4" width="122" height="122">
<path d="M153.324 64.8181C153.324 98.2368 126.233 125.328 92.8143 125.328C59.3956 125.328 32.3044 98.2368 32.3044 64.8181C32.3044 31.3994 59.3956 4.30814 92.8143 4.30814C126.233 4.30814 153.324 31.3994 153.324 64.8181Z" fill="#FFB756"/>
</mask>
<g mask="url(#mask0_5_19)">
<path d="M100.843 1.95825L77.5399 3.32903C77.5399 3.32903 73.4276 15.6088 61.6781 24.2823C50.1244 32.8113 36.6125 33.2903 36.6125 33.2903L29.1711 51.6978C29.1711 51.6978 49.7328 50.6563 71.4694 36.0318C86.5 25.9191 100.843 1.95825 100.843 1.95825Z" fill="#FF8A04"/>
<path d="M117.684 6.46221L113.963 4.30814C113.963 4.30814 107.893 37.7942 83.8064 54.831C59.7199 71.8678 27.2129 70.3012 27.2129 70.3012V76.3718C27.2129 76.3718 63.0489 76.7634 88.5062 58.16C113.963 39.5566 117.684 6.46221 117.684 6.46221Z" fill="#FF9607"/>
<path d="M147.157 33.675L120.902 2.63475C120.902 2.63475 116.627 42.757 90.3883 62.9794C64.1497 83.2018 30.3732 82.2504 30.3732 82.2504L47.1132 111.217C47.1132 111.217 73.0048 110.968 100.704 88.9336C128.402 66.8992 147.157 33.675 147.157 33.675Z" fill="#FF9607"/>
</g>
<path d="M30.6923 79.1936L33.2381 87.4182C33.2381 87.4182 27.5592 90.9431 24.2301 98.1886C12.0898 124.612 90.6148 98.1886 111.372 87.4182C127.214 79.1987 198.514 19.467 159.741 19.467C149.316 19.467 141.333 24.9501 141.333 24.9501L138.2 19.467C138.2 19.467 162.874 8.69653 182.065 7.52159C228.819 4.65911 150.929 79.1936 117.051 100.93C97.438 113.514 -16.7965 153.129 2.1019 111.896C10.7182 93.0971 30.6923 79.1936 30.6923 79.1936Z" fill="url(#paint1_linear_5_19)"/>
</g>
<defs>
<linearGradient id="paint0_linear_5_19" x1="44.0538" y1="24.0865" x2="129.042" y2="115.145" gradientUnits="userSpaceOnUse">
<stop stop-color="#701E01"/>
<stop offset="1" stop-color="#C03C07"/>
</linearGradient>
<linearGradient id="paint1_linear_5_19" x1="24.674" y1="111.424" x2="170.368" y2="28.3946" gradientUnits="userSpaceOnUse">
<stop stop-color="#A12E05"/>
<stop offset="1" stop-color="#FC7805"/>
</linearGradient>
<clipPath id="clip0_5_19">
<rect width="197" height="130.419" fill="white"/>
</clipPath>
</defs>
</svg>
