<?xml version="1.0" standalone="no"?>
<!DOCTYPE svg PUBLIC "-//W3C//DTD SVG 1.1//EN" "http://www.w3.org/Graphics/SVG/1.1/DTD/svg11.dtd" >
<svg xmlns="http://www.w3.org/2000/svg">
<metadata>
<json>
<![CDATA[
{
	"fontFamily": "mds-icon-material",
	"majorVersion": 1,
	"minorVersion": 0,
	"version": "Version 1.0",
	"fontId": "mds-icon-material",
	"psName": "mds-icon-material",
	"subFamily": "Regular",
	"fullName": "mds-icon-material",
	"description": "Font generated by IcoMoon."
}
]]>
</json>
</metadata>
<defs>
<font id="mds-icon-material" horiz-adv-x="1024">
<font-face units-per-em="1024" ascent="960" descent="-64" />
<missing-glyph horiz-adv-x="1024" />
<glyph unicode="&#x20;" horiz-adv-x="512" d="" />
<glyph unicode="&#xe900;" glyph-name="icon__wheelchair-pickup" data-tags="icon__wheelchair-pickup" d="M277.333 704c-23.467 0-43.555 8.355-60.267 25.067s-25.067 36.8-25.067 60.267c0 23.467 8.355 43.555 25.067 60.267s36.8 25.067 60.267 25.067c23.467 0 43.555-8.355 60.267-25.067s25.067-36.8 25.067-60.267c0-23.467-8.355-43.555-25.067-60.267s-36.8-25.067-60.267-25.067zM256 21.333c-12.089 0-22.222 4.087-30.4 12.267s-12.267 18.313-12.267 30.4v256h-42.667c-12.089 0-22.222 4.087-30.4 12.267s-12.267 18.313-12.267 30.4v213.333c0 23.467 8.355 43.555 25.067 60.267s36.8 25.067 60.267 25.067h128c23.467 0 43.555-8.355 60.267-25.067s25.067-36.8 25.067-60.267v-83.2c-44.8-25.6-80.889-61.154-108.267-106.667s-41.067-96-41.067-151.467c0-40.533 7.467-78.754 22.4-114.667s35.911-67.379 62.933-94.4v-4.267h-106.667zM576 21.333c-59.021 0-109.333 20.8-150.933 62.4s-62.4 91.913-62.4 150.933c0 47.646 14.045 89.779 42.133 126.4s63.821 62.046 107.2 76.267v-92.8c-19.2-11.379-34.667-26.667-46.4-45.867s-17.6-40.533-17.6-64c0-35.554 12.446-65.779 37.333-90.667s55.113-37.333 90.667-37.333c35.554 0 65.779 12.446 90.667 37.333s37.333 55.113 37.333 90.667h85.333c0-59.021-20.8-109.333-62.4-150.933s-91.913-62.4-150.933-62.4zM869.333 154.667l-82.133 122.667h-189.867c-12.087 0-22.221 4.087-30.4 12.267s-12.267 18.313-12.267 30.4v256c0 12.089 4.087 22.222 12.267 30.4s18.313 12.267 30.4 12.267c12.087 0 22.221-4.089 30.4-12.267s12.267-18.311 12.267-30.4v-213.333h171.733c7.113 0 13.867-1.779 20.267-5.333s11.379-8.179 14.933-13.867l93.867-141.867c6.4-9.954 8.354-20.621 5.867-32s-8.713-20.267-18.667-26.667c-9.954-6.4-20.621-8.533-32-6.4s-20.267 8.179-26.667 18.133z" />
<glyph unicode="&#xe901;" glyph-name="icon__youtube" data-tags="icon__youtube" d="M839.68 631.182c-9.101 31.858-31.859 54.613-59.166 59.165-54.613 13.653-268.514 13.653-268.514 13.653s-213.902 0-268.515-13.653c-31.858-9.102-54.613-31.858-59.165-59.165-13.653-54.613-13.653-163.841-13.653-163.841s0-113.775 13.653-163.84c9.102-27.307 31.858-54.613 59.165-59.162 54.613-13.653 268.515-13.653 268.515-13.653s213.901 0 268.514 13.653c31.859 9.101 54.613 31.855 59.166 59.162 13.653 54.613 13.653 163.84 13.653 163.84s0 113.779-13.653 163.841zM443.733 367.219v204.799l177.493-100.125-177.493-104.674z" />
<glyph unicode="&#xe902;" glyph-name="icon__zoom-in" data-tags="icon__zoom-in" d="M806.4 93.867l-238.933 238.933c-21.333-17.067-45.867-30.579-73.6-40.533s-57.246-14.933-88.533-14.933c-77.511 0-143.111 26.846-196.8 80.533s-80.533 119.287-80.533 196.8c0 77.511 26.845 143.111 80.533 196.8s119.289 80.533 196.8 80.533c77.513 0 143.113-26.845 196.8-80.533s80.533-119.289 80.533-196.8c0-31.287-4.979-60.8-14.933-88.533s-23.467-52.267-40.533-73.6l240-240c7.821-7.821 11.554-17.6 11.2-29.333s-4.446-21.513-12.267-29.333c-7.821-7.821-17.779-11.733-29.867-11.733s-22.046 3.913-29.867 11.733zM405.333 362.667c53.333 0 98.667 18.667 136 56s56 82.667 56 136c0 53.333-18.667 98.667-56 136s-82.667 56-136 56c-53.333 0-98.667-18.667-136-56s-56-82.667-56-136c0-53.333 18.667-98.667 56-136s82.667-56 136-56zM405.333 426.667c-12.089 0-22.222 4.087-30.4 12.267s-12.267 18.313-12.267 30.4v42.667h-43.733c-12.089 0-22.045 4.087-29.867 12.267s-11.733 18.311-11.733 30.4c0 12.089 4.089 22.222 12.267 30.4s18.311 12.267 30.4 12.267h42.667v43.733c0 12.089 4.089 22.045 12.267 29.867s18.311 11.733 30.4 11.733c12.089 0 22.221-4.089 30.4-12.267s12.267-18.311 12.267-30.4v-42.667h43.733c12.087 0 22.046-4.089 29.867-12.267s11.733-18.311 11.733-30.4c0-12.089-4.087-22.221-12.267-30.4s-18.313-12.267-30.4-12.267h-42.667v-43.733c0-12.087-4.087-22.046-12.267-29.867s-18.311-11.733-30.4-11.733z" />
<glyph unicode="&#xe903;" glyph-name="icon__zoom-in-map" data-tags="icon__zoom-in-map" d="M171.742 575.998c-12.089 0-22.223 4.089-30.4 12.267s-12.267 18.311-12.267 30.4c0 12.089 4.089 22.222 12.267 30.4s18.311 12.267 30.4 12.267h68.267l-102.4 102.4c-7.823 7.822-11.733 17.778-11.733 29.867s3.911 22.045 11.733 29.867c7.822 7.822 17.777 11.733 29.867 11.733s22.044-3.911 29.867-11.733l102.4-102.4v68.267c0 12.089 4.089 22.222 12.267 30.4s18.311 12.267 30.4 12.267c12.089 0 22.222-4.089 30.4-12.267s12.267-18.311 12.267-30.4v-170.667c0-12.089-4.089-22.222-12.267-30.4s-18.311-12.267-30.4-12.267h-170.667zM854.409 575.998h-170.667c-12.087 0-22.221 4.089-30.4 12.267s-12.267 18.311-12.267 30.4v170.667c0 12.089 4.087 22.222 12.267 30.4s18.313 12.267 30.4 12.267c12.087 0 22.221-4.089 30.4-12.267s12.267-18.311 12.267-30.4v-68.267l102.4 102.4c7.821 7.822 17.779 11.733 29.867 11.733s22.046-3.911 29.867-11.733c7.821-7.822 11.733-17.778 11.733-29.867s-3.913-22.045-11.733-29.867l-102.4-102.4h68.267c12.087 0 22.221-4.089 30.4-12.267s12.267-18.311 12.267-30.4c0-12.089-4.087-22.222-12.267-30.4s-18.313-12.267-30.4-12.267zM137.609 72.533c-7.823 7.821-11.733 17.775-11.733 29.867 0 12.087 3.911 22.042 11.733 29.867l102.4 102.4h-68.267c-12.089 0-22.223 4.087-30.4 12.267-8.178 8.175-12.267 18.308-12.267 30.4 0 12.087 4.089 22.221 12.267 30.4 8.177 8.175 18.311 12.267 30.4 12.267h170.667c12.089 0 22.222-4.092 30.4-12.267 8.177-8.179 12.267-18.313 12.267-30.4v-170.667c0-12.092-4.089-22.225-12.267-30.4-8.178-8.179-18.311-12.267-30.4-12.267s-22.223 4.087-30.4 12.267c-8.178 8.175-12.267 18.308-12.267 30.4v68.267l-102.4-102.4c-7.823-7.825-17.778-11.733-29.867-11.733s-22.045 3.908-29.867 11.733zM683.742 64c-12.087 0-22.221 4.087-30.4 12.267-8.179 8.175-12.267 18.308-12.267 30.4v170.667c0 12.087 4.087 22.221 12.267 30.4 8.179 8.175 18.313 12.267 30.4 12.267h170.667c12.087 0 22.221-4.092 30.4-12.267 8.179-8.179 12.267-18.313 12.267-30.4 0-12.092-4.087-22.225-12.267-30.4-8.179-8.179-18.313-12.267-30.4-12.267h-68.267l102.4-102.4c7.821-7.825 11.733-17.779 11.733-29.867 0-12.092-3.913-22.046-11.733-29.867-7.821-7.825-17.779-11.733-29.867-11.733s-22.046 3.908-29.867 11.733l-102.4 102.4v-68.267c0-12.092-4.087-22.225-12.267-30.4-8.179-8.179-18.313-12.267-30.4-12.267z" />
<glyph unicode="&#xe904;" glyph-name="icon__zoom-out" data-tags="icon__zoom-out" d="M806.4 93.867l-238.933 238.933c-21.333-17.067-45.867-30.579-73.6-40.533s-57.246-14.933-88.533-14.933c-77.511 0-143.111 26.846-196.8 80.533s-80.533 119.287-80.533 196.8c0 77.511 26.845 143.111 80.533 196.8s119.289 80.533 196.8 80.533c77.513 0 143.113-26.845 196.8-80.533s80.533-119.289 80.533-196.8c0-31.287-4.979-60.8-14.933-88.533s-23.467-52.267-40.533-73.6l240-240c7.821-7.821 11.554-17.6 11.2-29.333s-4.446-21.513-12.267-29.333c-7.821-7.821-17.779-11.733-29.867-11.733s-22.046 3.913-29.867 11.733zM405.333 362.667c53.333 0 98.667 18.667 136 56s56 82.667 56 136c0 53.333-18.667 98.667-56 136s-82.667 56-136 56c-53.333 0-98.667-18.667-136-56s-56-82.667-56-136c0-53.333 18.667-98.667 56-136s82.667-56 136-56zM340.267 512c-12.089 0-22.045 4.087-29.867 12.267s-11.733 18.311-11.733 30.4c0 12.089 4.089 22.222 12.267 30.4s18.311 12.267 30.4 12.267h129.067c12.087 0 22.046-4.089 29.867-12.267s11.733-18.311 11.733-30.4c0-12.089-4.087-22.221-12.267-30.4s-18.313-12.267-30.4-12.267h-129.067z" />
<glyph unicode="&#xe905;" glyph-name="icon__zoom-out-map" data-tags="icon__zoom-out-map" d="M170.667 576c-12.089 0-22.222 4.089-30.4 12.267s-12.267 18.311-12.267 30.4v170.667c0 12.089 4.089 22.222 12.267 30.4s18.311 12.267 30.4 12.267h170.667c12.089 0 22.222-4.089 30.4-12.267s12.267-18.311 12.267-30.4c0-12.089-4.089-22.222-12.267-30.4s-18.311-12.267-30.4-12.267h-68.267l103.467-103.467c7.822-7.822 11.733-17.422 11.733-28.8s-4.267-21.333-12.8-29.867c-7.822-7.822-17.778-11.733-29.867-11.733s-22.045 3.911-29.867 11.733l-102.4 102.4v-68.267c0-12.089-4.089-22.222-12.267-30.4s-18.311-12.267-30.4-12.267zM648.533 584.533c-7.821 7.822-11.733 17.778-11.733 29.867s3.913 22.045 11.733 29.867l102.4 102.4h-68.267c-12.087 0-22.221 4.089-30.4 12.267s-12.267 18.311-12.267 30.4c0 12.089 4.087 22.222 12.267 30.4s18.313 12.267 30.4 12.267h170.667c12.087 0 22.221-4.089 30.4-12.267s12.267-18.311 12.267-30.4v-170.667c0-12.089-4.087-22.222-12.267-30.4s-18.313-12.267-30.4-12.267c-12.087 0-22.221 4.089-30.4 12.267s-12.267 18.311-12.267 30.4v68.267l-103.467-103.467c-7.821-7.822-17.421-11.733-28.8-11.733s-21.333 4.267-29.867 12.8zM682.667 64c-12.087 0-22.221 4.087-30.4 12.267s-12.267 18.313-12.267 30.4c0 12.087 4.087 22.221 12.267 30.4s18.313 12.267 30.4 12.267h68.267l-103.467 103.467c-7.821 7.821-11.733 17.421-11.733 28.8s4.267 21.333 12.8 29.867c7.821 7.821 17.779 11.733 29.867 11.733s22.046-3.913 29.867-11.733l102.4-102.4v68.267c0 12.087 4.087 22.221 12.267 30.4s18.313 12.267 30.4 12.267c12.087 0 22.221-4.087 30.4-12.267s12.267-18.313 12.267-30.4v-170.667c0-12.087-4.087-22.221-12.267-30.4s-18.313-12.267-30.4-12.267h-170.667zM170.667 64c-12.089 0-22.222 4.087-30.4 12.267s-12.267 18.313-12.267 30.4v170.667c0 12.087 4.089 22.221 12.267 30.4s18.311 12.267 30.4 12.267c12.089 0 22.222-4.087 30.4-12.267s12.267-18.313 12.267-30.4v-68.267l103.467 103.467c7.822 7.821 17.422 11.733 28.8 11.733s21.333-4.267 29.867-12.8c7.822-7.821 11.733-17.779 11.733-29.867s-3.911-22.046-11.733-29.867l-102.4-102.4h68.267c12.089 0 22.222-4.087 30.4-12.267s12.267-18.313 12.267-30.4c0-12.087-4.089-22.221-12.267-30.4s-18.311-12.267-30.4-12.267h-170.667z" />
<glyph unicode="&#xe906;" glyph-name="icon__accessibility-new" data-tags="icon__accessibility-new" d="M511.987 704c-23.467 0-43.554 8.355-60.267 25.067-16.708 16.711-25.066 36.8-25.066 60.267s8.358 43.555 25.066 60.267c16.713 16.711 36.8 25.067 60.267 25.067s43.558-8.355 60.267-25.067c16.713-16.711 25.067-36.8 25.067-60.267s-8.354-43.555-25.067-60.267c-16.708-16.711-36.8-25.067-60.267-25.067zM853.321 608c-34.133-7.822-69.333-14.4-105.6-19.733s-72.175-9.422-107.733-12.267v-513.067c0-12.087-4.087-22.046-12.267-29.867-8.175-7.821-18.308-11.733-30.4-11.733-12.087 0-22.221 4.087-30.4 12.267-8.175 8.179-12.267 18.313-12.267 30.4v213.333h-85.333v-214.4c0-12.087-4.087-22.046-12.267-29.867-8.175-7.821-18.308-11.733-30.399-11.733-12.089 0-22.222 4.087-30.4 12.267s-12.267 18.313-12.267 30.4v512c-35.555 2.845-71.467 6.933-107.733 12.267s-71.467 11.911-105.6 19.733c-12.089 2.845-21.333 9.422-27.733 19.733s-7.822 21.511-4.267 33.6c2.845 12.089 9.422 21.155 19.733 27.2s21.511 7.645 33.6 4.8c51.2-11.378 104-19.555 158.4-24.533s108.266-7.467 161.599-7.467c53.333 0 107.2 2.489 161.6 7.467s107.2 13.155 158.4 24.533c12.092 2.845 23.113 1.245 33.067-4.8 9.958-6.045 16.713-15.111 20.267-27.2 2.846-12.089 1.246-23.289-4.8-33.6-6.042-10.311-15.108-16.889-27.2-19.733z" />
<glyph unicode="&#xe907;" glyph-name="icon__accessible" data-tags="icon__accessible" d="M512 704c-23.467 0-43.554 8.355-60.267 25.067s-25.067 36.8-25.067 60.267c0 23.467 8.354 43.555 25.067 60.267s36.8 25.067 60.267 25.067c23.467 0 43.554-8.355 60.267-25.067s25.067-36.8 25.067-60.267c0-23.467-8.354-43.555-25.067-60.267s-36.8-25.067-60.267-25.067zM768 21.333c-12.087 0-22.221 4.087-30.4 12.267s-12.267 18.313-12.267 30.4v170.667h-213.333c-23.467 0-43.554 8.354-60.267 25.067s-25.067 36.8-25.067 60.267v256c0 24.889 8 45.333 24 61.333s36.446 24 61.333 24c17.067 0 31.821-3.733 44.267-11.2s25.779-19.378 40-35.733c32.713-39.822 62.579-68.622 89.6-86.4 27.021-17.779 56.179-29.154 87.467-34.133 10.667-1.421 19.554-6.046 26.667-13.867s10.667-17.067 10.667-27.733c0-13.513-4.621-24.533-13.867-33.067s-19.913-11.733-32-9.6c-30.579 5.687-60.621 15.821-90.133 30.4s-55.287 30.754-77.333 48.533v-147.2h128c23.467 0 43.554-8.354 60.267-25.067s25.067-36.8 25.067-60.267v-192c0-12.087-4.087-22.221-12.267-30.4s-18.313-12.267-30.4-12.267zM426.667 21.333c-59.022 0-109.333 20.8-150.933 62.4s-62.4 91.913-62.4 150.933c0 51.2 16.178 96.354 48.533 135.467s73.067 63.646 122.133 73.6v-87.467c-24.889-9.954-45.333-25.779-61.333-47.467s-24-46.4-24-74.133c0-35.554 12.445-65.779 37.333-90.667s55.111-37.333 90.667-37.333c27.733 0 52.446 8 74.133 24s37.513 36.446 47.467 61.333h87.467c-9.954-49.067-34.487-89.779-73.6-122.133s-84.267-48.533-135.467-48.533z" />
<glyph unicode="&#xe908;" glyph-name="icon__account-circle" data-tags="icon__account-circle" d="M249.6 230.4c36.267 27.733 76.8 49.6 121.6 65.6s91.733 24 140.8 24c49.067 0 96-8 140.8-24s85.333-37.867 121.6-65.6c24.887 29.154 44.267 62.221 58.133 99.2s20.8 76.446 20.8 118.4c0 94.578-33.246 175.111-99.733 241.6s-147.021 99.733-241.6 99.733c-94.578 0-175.111-33.245-241.6-99.733s-99.733-147.022-99.733-241.6c0-41.954 6.933-81.421 20.8-118.4s33.245-70.046 58.133-99.2zM512 405.333c-41.954 0-77.333 14.4-106.133 43.2s-43.2 64.179-43.2 106.133c0 41.955 14.4 77.333 43.2 106.133s64.179 43.2 106.133 43.2c41.954 0 77.333-14.4 106.133-43.2s43.2-64.178 43.2-106.133c0-41.954-14.4-77.333-43.2-106.133s-64.179-43.2-106.133-43.2zM512 21.333c-59.021 0-114.489 11.2-166.4 33.6s-97.067 52.8-135.467 91.2c-38.4 38.4-68.8 83.554-91.2 135.467s-33.6 107.379-33.6 166.4c0 59.021 11.2 114.489 33.6 166.4s52.8 97.067 91.2 135.467c38.4 38.4 83.555 68.8 135.467 91.2s107.379 33.6 166.4 33.6c59.021 0 114.487-11.2 166.4-33.6s97.067-52.8 135.467-91.2c38.4-38.4 68.8-83.555 91.2-135.467s33.6-107.379 33.6-166.4c0-59.021-11.2-114.487-33.6-166.4s-52.8-97.067-91.2-135.467c-38.4-38.4-83.554-68.8-135.467-91.2s-107.379-33.6-166.4-33.6zM512 106.667c37.687 0 73.246 5.513 106.667 16.533s64 26.846 91.733 47.467c-27.733 20.621-58.313 36.446-91.733 47.467s-68.979 16.533-106.667 16.533c-37.687 0-73.246-5.513-106.667-16.533s-64-26.846-91.733-47.467c27.733-20.621 58.311-36.446 91.733-47.467 33.421-11.021 68.979-16.533 106.667-16.533zM512 490.667c18.487 0 33.779 6.046 45.867 18.133s18.133 27.378 18.133 45.867c0 18.489-6.046 33.778-18.133 45.867s-27.379 18.133-45.867 18.133c-18.487 0-33.779-6.045-45.867-18.133s-18.133-27.378-18.133-45.867c0-18.489 6.046-33.779 18.133-45.867s27.379-18.133 45.867-18.133z" />
<glyph unicode="&#xe909;" glyph-name="icon__add" data-tags="icon__add" d="M512 149.333c-12.087 0-22.221 4.087-30.4 12.267s-12.267 18.313-12.267 30.4v213.333h-213.333c-12.089 0-22.222 4.087-30.4 12.267s-12.267 18.313-12.267 30.4c0 12.087 4.089 22.221 12.267 30.4s18.311 12.267 30.4 12.267h213.333v213.333c0 12.089 4.087 22.222 12.267 30.4s18.313 12.267 30.4 12.267c12.087 0 22.221-4.089 30.4-12.267s12.267-18.311 12.267-30.4v-213.333h213.333c12.087 0 22.221-4.087 30.4-12.267s12.267-18.313 12.267-30.4c0-12.087-4.087-22.221-12.267-30.4s-18.313-12.267-30.4-12.267h-213.333v-213.333c0-12.087-4.087-22.221-12.267-30.4s-18.313-12.267-30.4-12.267z" />
<glyph unicode="&#xe90a;" glyph-name="icon__add-circle" data-tags="icon__add-circle" d="M469.333 405.333v-128c0-12.087 4.087-22.221 12.267-30.4s18.313-12.267 30.4-12.267c12.087 0 22.221 4.087 30.4 12.267s12.267 18.313 12.267 30.4v128h128c12.087 0 22.221 4.087 30.4 12.267s12.267 18.313 12.267 30.4c0 12.087-4.087 22.221-12.267 30.4s-18.313 12.267-30.4 12.267h-128v128c0 12.089-4.087 22.222-12.267 30.4s-18.313 12.267-30.4 12.267c-12.087 0-22.221-4.089-30.4-12.267s-12.267-18.311-12.267-30.4v-128h-128c-12.089 0-22.222-4.087-30.4-12.267s-12.267-18.313-12.267-30.4c0-12.087 4.089-22.221 12.267-30.4s18.311-12.267 30.4-12.267h128zM512 21.333c-59.021 0-114.489 11.2-166.4 33.6s-97.067 52.8-135.467 91.2c-38.4 38.4-68.8 83.554-91.2 135.467s-33.6 107.379-33.6 166.4c0 59.021 11.2 114.489 33.6 166.4s52.8 97.067 91.2 135.467c38.4 38.4 83.555 68.8 135.467 91.2s107.379 33.6 166.4 33.6c59.021 0 114.487-11.2 166.4-33.6s97.067-52.8 135.467-91.2c38.4-38.4 68.8-83.555 91.2-135.467s33.6-107.379 33.6-166.4c0-59.021-11.2-114.487-33.6-166.4s-52.8-97.067-91.2-135.467c-38.4-38.4-83.554-68.8-135.467-91.2s-107.379-33.6-166.4-33.6zM512 106.667c95.287 0 176 33.067 242.133 99.2s99.2 146.846 99.2 242.133c0 95.289-33.067 176-99.2 242.133s-146.846 99.2-242.133 99.2c-95.289 0-176-33.067-242.133-99.2s-99.2-146.845-99.2-242.133c0-95.287 33.067-176 99.2-242.133s146.845-99.2 242.133-99.2z" />
<glyph unicode="&#xe90b;" glyph-name="icon__alternate-email" data-tags="icon__alternate-email" d="M512 21.333c-58.313 0-113.422 11.2-165.333 33.6s-97.245 52.979-136 91.733c-38.755 38.754-69.333 84.087-91.733 136s-33.6 107.021-33.6 165.333c0 59.021 11.2 114.311 33.6 165.867s52.978 96.711 91.733 135.467c38.755 38.755 84.089 69.333 136 91.733s107.021 33.6 165.333 33.6c59.021 0 114.313-11.2 165.867-33.6s96.713-52.978 135.467-91.733c38.754-38.755 69.333-83.911 91.733-135.467s33.6-106.846 33.6-165.867v-61.867c0-41.954-14.4-77.687-43.2-107.2s-64.179-44.267-106.133-44.267c-25.6 0-49.421 5.687-71.467 17.067s-40.179 26.313-54.4 44.8c-19.2-19.2-41.779-34.313-67.733-45.333s-53.867-16.533-83.733-16.533c-59.021 0-109.333 20.8-150.933 62.4s-62.4 91.913-62.4 150.933c0 59.021 20.8 109.333 62.4 150.933s91.913 62.4 150.933 62.4c59.021 0 109.333-20.8 150.933-62.4s62.4-91.913 62.4-150.933v-61.867c0-20.621 6.4-36.8 19.2-48.533s27.733-17.6 44.8-17.6c17.067 0 32 5.867 44.8 17.6s19.2 27.913 19.2 48.533v61.867c0 93.155-33.6 173.333-100.8 240.533s-147.379 100.8-240.533 100.8c-93.155 0-173.333-33.6-240.533-100.8s-100.8-147.378-100.8-240.533c0-93.154 33.6-173.333 100.8-240.533s147.378-100.8 240.533-100.8h170.667c12.087 0 22.221-4.087 30.4-12.267s12.267-18.313 12.267-30.4c0-12.087-4.087-22.221-12.267-30.4s-18.313-12.267-30.4-12.267h-170.667zM512 320c35.554 0 65.779 12.446 90.667 37.333s37.333 55.113 37.333 90.667c0 35.554-12.446 65.779-37.333 90.667s-55.113 37.333-90.667 37.333-65.779-12.445-90.667-37.333c-24.889-24.887-37.333-55.113-37.333-90.667s12.445-65.779 37.333-90.667c24.887-24.887 55.113-37.333 90.667-37.333z" />
<glyph unicode="&#xe90c;" glyph-name="icon__apps" data-tags="icon__apps" d="M256 106.667c-23.467 0-43.555 8.354-60.267 25.067s-25.067 36.8-25.067 60.267c0 23.467 8.355 43.554 25.067 60.267s36.8 25.067 60.267 25.067c23.467 0 43.555-8.354 60.267-25.067s25.067-36.8 25.067-60.267c0-23.467-8.355-43.554-25.067-60.267s-36.8-25.067-60.267-25.067zM512 106.667c-23.467 0-43.554 8.354-60.267 25.067s-25.067 36.8-25.067 60.267c0 23.467 8.354 43.554 25.067 60.267s36.8 25.067 60.267 25.067c23.467 0 43.554-8.354 60.267-25.067s25.067-36.8 25.067-60.267c0-23.467-8.354-43.554-25.067-60.267s-36.8-25.067-60.267-25.067zM768 106.667c-23.467 0-43.554 8.354-60.267 25.067s-25.067 36.8-25.067 60.267c0 23.467 8.354 43.554 25.067 60.267s36.8 25.067 60.267 25.067c23.467 0 43.554-8.354 60.267-25.067s25.067-36.8 25.067-60.267c0-23.467-8.354-43.554-25.067-60.267s-36.8-25.067-60.267-25.067zM256 362.667c-23.467 0-43.555 8.354-60.267 25.067s-25.067 36.8-25.067 60.267c0 23.467 8.355 43.554 25.067 60.267s36.8 25.067 60.267 25.067c23.467 0 43.555-8.354 60.267-25.067s25.067-36.8 25.067-60.267c0-23.467-8.355-43.554-25.067-60.267s-36.8-25.067-60.267-25.067zM512 362.667c-23.467 0-43.554 8.354-60.267 25.067s-25.067 36.8-25.067 60.267c0 23.467 8.354 43.554 25.067 60.267s36.8 25.067 60.267 25.067c23.467 0 43.554-8.354 60.267-25.067s25.067-36.8 25.067-60.267c0-23.467-8.354-43.554-25.067-60.267s-36.8-25.067-60.267-25.067zM768 362.667c-23.467 0-43.554 8.354-60.267 25.067s-25.067 36.8-25.067 60.267c0 23.467 8.354 43.554 25.067 60.267s36.8 25.067 60.267 25.067c23.467 0 43.554-8.354 60.267-25.067s25.067-36.8 25.067-60.267c0-23.467-8.354-43.554-25.067-60.267s-36.8-25.067-60.267-25.067zM256 618.667c-23.467 0-43.555 8.355-60.267 25.067s-25.067 36.8-25.067 60.267c0 23.467 8.355 43.555 25.067 60.267s36.8 25.067 60.267 25.067c23.467 0 43.555-8.355 60.267-25.067s25.067-36.8 25.067-60.267c0-23.467-8.355-43.555-25.067-60.267s-36.8-25.067-60.267-25.067zM512 618.667c-23.467 0-43.554 8.355-60.267 25.067s-25.067 36.8-25.067 60.267c0 23.467 8.354 43.555 25.067 60.267s36.8 25.067 60.267 25.067c23.467 0 43.554-8.355 60.267-25.067s25.067-36.8 25.067-60.267c0-23.467-8.354-43.555-25.067-60.267s-36.8-25.067-60.267-25.067zM768 618.667c-23.467 0-43.554 8.355-60.267 25.067s-25.067 36.8-25.067 60.267c0 23.467 8.354 43.555 25.067 60.267s36.8 25.067 60.267 25.067c23.467 0 43.554-8.355 60.267-25.067s25.067-36.8 25.067-60.267c0-23.467-8.354-43.555-25.067-60.267s-36.8-25.067-60.267-25.067z" />
<glyph unicode="&#xe90d;" glyph-name="icon__archive" data-tags="icon__archive" d="M213.333 64c-23.467 0-43.555 8.354-60.267 25.067s-25.067 36.8-25.067 60.267v533.333c0 10.667 1.778 20.267 5.333 28.8s8.178 16.711 13.867 24.533l59.733 72.533c5.689 7.822 12.8 13.689 21.333 17.6s17.778 5.867 27.733 5.867h512c9.954 0 19.2-1.955 27.733-5.867s15.646-9.778 21.333-17.6l59.733-72.533c5.687-7.822 10.313-16 13.867-24.533s5.333-18.133 5.333-28.8v-533.333c0-23.467-8.354-43.554-25.067-60.267s-36.8-25.067-60.267-25.067h-597.333zM230.4 704h563.2l-36.267 42.667h-490.667l-36.267-42.667zM213.333 149.333h597.333v469.333h-597.333v-469.333zM512 210.133c5.687 0 11.021 0.887 16 2.667s9.6 4.8 13.867 9.067l110.933 110.933c7.821 7.821 11.733 17.779 11.733 29.867s-3.913 22.046-11.733 29.867c-7.821 7.821-17.779 11.733-29.867 11.733s-22.046-3.913-29.867-11.733l-38.4-38.4v136.533c0 12.087-4.087 22.221-12.267 30.4s-18.313 12.267-30.4 12.267c-12.087 0-22.221-4.087-30.4-12.267s-12.267-18.313-12.267-30.4v-136.533l-38.4 38.4c-7.822 7.821-17.778 11.733-29.867 11.733s-22.045-3.913-29.867-11.733c-7.822-7.821-11.733-17.779-11.733-29.867s3.911-22.046 11.733-29.867l110.933-110.933c4.267-4.267 8.887-7.287 13.867-9.067s10.313-2.667 16-2.667z" />
<glyph unicode="&#xe90e;" glyph-name="icon__arrow-back" data-tags="icon__arrow-back" d="M464 136.529l-281.6 281.6c-4.267 4.267-7.289 8.887-9.067 13.867s-2.667 10.313-2.667 16c0 5.687 0.889 11.021 2.667 16s4.8 9.6 9.067 13.867l281.6 281.6c7.821 7.822 17.6 11.911 29.333 12.267s21.867-3.733 30.4-12.267c8.533-7.822 12.979-17.6 13.333-29.333s-3.733-21.867-12.267-30.4l-209.067-209.066h476.8c12.087 0 22.221-4.087 30.4-12.267s12.267-18.313 12.267-30.4c0-12.087-4.087-22.221-12.267-30.4s-18.313-12.267-30.4-12.267h-476.8l209.067-209.067c7.821-7.821 11.913-17.779 12.267-29.867s-3.733-22.046-12.267-29.867c-7.821-8.533-17.779-12.8-29.867-12.8s-22.4 4.267-30.933 12.8z" />
<glyph unicode="&#xe90f;" glyph-name="icon__arrow-back-ios" data-tags="icon__arrow-back-ios" d="M669.867 59.738l-359.467 358.4c-4.267 4.267-7.289 8.887-9.067 13.867s-2.667 10.313-2.667 16c0 5.687 0.889 11.021 2.667 16s4.8 9.6 9.067 13.867l359.467 359.467c9.954 9.955 22.4 14.933 37.333 14.933s27.733-5.333 38.4-16c10.667-10.667 16-23.111 16-37.333s-5.333-26.667-16-37.333l-313.6-313.6 313.6-313.6c9.954-9.954 14.933-22.221 14.933-36.8s-5.333-27.2-16-37.867c-10.667-10.667-23.113-16-37.333-16s-26.667 5.333-37.333 16z" />
<glyph unicode="&#xe910;" glyph-name="icon__arrow-downward" data-tags="icon__arrow-downward" d="M511.996 124.8c-5.687 0-11.021 0.887-16 2.667s-9.6 4.8-13.867 9.067l-281.6 281.6c-8.533 8.533-12.8 18.667-12.8 30.4s4.267 21.867 12.8 30.4c8.533 8.533 18.489 12.8 29.867 12.8s21.333-4.267 29.867-12.8l209.067-209.067v477.867c0 12.089 4.087 22.045 12.267 29.867s18.313 11.733 30.4 11.733c12.087 0 22.221-4.089 30.4-12.267s12.267-18.311 12.267-30.4v-476.8l209.067 209.067c8.533 8.533 18.487 12.8 29.867 12.8s21.333-4.267 29.867-12.8c8.533-8.533 12.8-18.667 12.8-30.4s-4.267-21.867-12.8-30.4l-281.6-281.6c-4.267-4.267-8.887-7.287-13.867-9.067s-10.313-2.667-16-2.667z" />
<glyph unicode="&#xe911;" glyph-name="icon__arrow-forward" data-tags="icon__arrow-forward" d="M482.133 136.533c-7.821 7.821-11.913 17.775-12.267 29.867-0.354 12.087 3.379 22.042 11.2 29.867l209.067 209.067h-476.8c-12.089 0-22.222 4.087-30.4 12.267-8.178 8.175-12.267 18.308-12.267 30.4 0 12.087 4.089 22.221 12.267 30.4 8.178 8.175 18.311 12.267 30.4 12.267h476.8l-209.067 209.065c-7.821 7.822-11.554 17.778-11.2 29.867s4.446 22.045 12.267 29.867c7.821 7.822 17.779 11.733 29.867 11.733s22.046-3.911 29.867-11.733l281.6-281.598c4.267-3.558 7.287-8 9.067-13.333s2.667-10.846 2.667-16.533c0-5.692-0.887-11.025-2.667-16-1.779-4.979-4.8-9.6-9.067-13.867l-281.6-281.6c-7.821-7.825-17.779-11.733-29.867-11.733s-22.046 3.908-29.867 11.733z" />
<glyph unicode="&#xe912;" glyph-name="icon__arrow-forward-ios" data-tags="icon__arrow-forward-ios" d="M305.062 59.733c-10.667 10.667-16 23.287-16 37.867s5.333 27.2 16 37.867l312.533 312.533-313.6 313.6c-9.955 9.955-14.933 22.4-14.933 37.333s5.333 27.733 16 38.4c10.667 10.667 23.289 16 37.867 16s27.2-5.333 37.867-16l358.4-359.467c4.267-4.267 7.287-8.887 9.067-13.867s2.667-10.313 2.667-16c0-5.687-0.887-11.021-2.667-16s-4.8-9.6-9.067-13.867l-359.467-359.467c-9.955-9.954-22.222-14.933-36.8-14.933s-27.2 5.333-37.867 16z" />
<glyph unicode="&#xe913;" glyph-name="icon__arrow-right-alt" data-tags="icon__arrow-right-alt" d="M567.467 222.933c-8.533 8.533-12.621 18.842-12.267 30.933 0.354 12.087 4.8 22.4 13.333 30.933l120.533 120.533h-475.733c-12.089 0-22.222 4.087-30.4 12.267-8.178 8.175-12.267 18.308-12.267 30.4 0 12.087 4.089 22.221 12.267 30.4 8.178 8.175 18.311 12.267 30.4 12.267h475.733l-121.6 121.598c-8.533 8.533-12.8 18.667-12.8 30.4s4.267 21.867 12.8 30.4c8.533 8.533 18.667 12.8 30.4 12.8s21.867-4.267 30.4-12.8l195.2-195.198c4.267-4.267 7.287-8.892 9.067-13.867 1.779-4.979 2.667-10.313 2.667-16 0-5.692-0.887-11.025-2.667-16-1.779-4.979-4.8-9.6-9.067-13.867l-196.267-196.267c-7.821-7.825-17.6-11.733-29.333-11.733s-21.867 4.267-30.4 12.8z" />
<glyph unicode="&#xe914;" glyph-name="icon__arrow-upward" data-tags="icon__arrow-upward" d="M511.996 106.667c-12.087 0-22.221 4.087-30.4 12.267-8.179 8.175-12.267 18.308-12.267 30.4v476.798l-208-207.998c-8.533-8.533-18.667-12.8-30.4-12.8s-21.867 4.267-30.4 12.8c-8.533 8.533-12.8 18.487-12.8 29.867 0 11.375 4.267 21.333 12.8 29.867l281.6 281.598c4.267 4.267 8.887 7.289 13.867 9.067s10.313 2.667 16 2.667c5.687 0 11.2-0.889 16.533-2.667s9.779-4.8 13.333-9.067l281.6-281.598c8.533-8.533 12.8-18.492 12.8-29.867 0-11.379-4.267-21.333-12.8-29.867s-18.667-12.8-30.4-12.8c-11.733 0-21.867 4.267-30.4 12.8l-208 207.998v-476.798c0-12.092-4.087-22.225-12.267-30.4-8.179-8.179-18.313-12.267-30.4-12.267z" />
<glyph unicode="&#xe915;" glyph-name="icon__attach-file" data-tags="icon__attach-file" d="M490.667 21.333c-65.422 0-120.889 22.754-166.4 68.267s-68.267 100.979-68.267 166.4v448c0 46.933 16.711 87.111 50.133 120.533s73.6 50.133 120.533 50.133c46.933 0 87.113-16.711 120.533-50.133s50.133-73.6 50.133-120.533v-405.333c0-29.867-10.313-55.113-30.933-75.733s-45.867-30.933-75.733-30.933c-29.867 0-55.113 10.313-75.733 30.933-20.622 20.621-30.933 45.867-30.933 75.733v373.333c0 9.245 3.022 16.889 9.067 22.933s13.689 9.067 22.933 9.067c9.245 0 16.887-3.022 22.933-9.067s9.067-13.689 9.067-22.933v-373.333c0-12.087 4.087-22.221 12.267-30.4s18.313-12.267 30.4-12.267c12.087 0 22.221 4.087 30.4 12.267s12.267 18.313 12.267 30.4v405.333c0 29.867-10.313 55.111-30.933 75.733s-45.867 30.933-75.733 30.933c-29.867 0-55.111-10.311-75.733-30.933s-30.933-45.867-30.933-75.733v-448c0-46.933 16.711-87.113 50.133-120.533s73.6-50.133 120.533-50.133c46.933 0 87.113 16.713 120.533 50.133s50.133 73.6 50.133 120.533v416c0 9.245 3.021 16.889 9.067 22.933s13.687 9.067 22.933 9.067c9.246 0 16.887-3.022 22.933-9.067s9.067-13.689 9.067-22.933v-416c0-65.421-22.754-120.887-68.267-166.4s-100.979-68.267-166.4-68.267z" />
<glyph unicode="&#xe916;" glyph-name="icon__badge" data-tags="icon__badge" d="M736 384c9.246 0 16.887 3.021 22.933 9.067s9.067 13.687 9.067 22.933c0 9.246-3.021 16.887-9.067 22.933s-13.687 9.067-22.933 9.067h-106.667c-9.246 0-16.887-3.021-22.933-9.067s-9.067-13.687-9.067-22.933c0-9.246 3.021-16.887 9.067-22.933s13.687-9.067 22.933-9.067h106.667zM736 256c9.246 0 16.887 3.021 22.933 9.067s9.067 13.687 9.067 22.933c0 9.246-3.021 16.887-9.067 22.933s-13.687 9.067-22.933 9.067h-106.667c-9.246 0-16.887-3.021-22.933-9.067s-9.067-13.687-9.067-22.933c0-9.246 3.021-16.887 9.067-22.933s13.687-9.067 22.933-9.067h106.667zM640 661.333h213.333c23.467 0 43.554-8.355 60.267-25.067s25.067-36.8 25.067-60.267v-469.333c0-23.467-8.354-43.554-25.067-60.267s-36.8-25.067-60.267-25.067h-682.667c-23.467 0-43.555 8.354-60.267 25.067s-25.067 36.8-25.067 60.267v469.333c0 23.467 8.355 43.555 25.067 60.267s36.8 25.067 60.267 25.067h213.333v128c0 23.467 8.355 43.555 25.067 60.267s36.8 25.067 60.267 25.067h85.333c23.467 0 43.554-8.355 60.267-25.067s25.067-36.8 25.067-60.267v-128zM469.333 576h85.333v213.333h-85.333v-213.333zM384 320c17.778 0 32.889 6.221 45.333 18.667 12.446 12.446 18.667 27.554 18.667 45.333s-6.221 32.887-18.667 45.333c-12.445 12.446-27.555 18.667-45.333 18.667s-32.889-6.221-45.333-18.667c-12.445-12.446-18.667-27.554-18.667-45.333s6.222-32.887 18.667-45.333c12.445-12.446 27.555-18.667 45.333-18.667zM256 192h256v19.2c0 12.087-3.379 23.287-10.133 33.6s-16.179 18.313-28.267 24c-14.221 6.4-28.621 11.2-43.2 14.4-14.578 3.2-30.045 4.8-46.4 4.8s-31.822-1.6-46.4-4.8c-14.578-3.2-28.978-8-43.2-14.4-12.089-5.687-21.511-13.687-28.267-24s-10.133-21.513-10.133-33.6v-19.2zM384 576h-213.333v-469.333h682.667v469.333h-213.333c0-23.467-8.354-43.554-25.067-60.267s-36.8-25.067-60.267-25.067h-85.333c-23.467 0-43.555 8.354-60.267 25.067s-25.067 36.8-25.067 60.267z" />
<glyph unicode="&#xe917;" glyph-name="icon__bolt" data-tags="icon__bolt" d="M450.133 183.467l220.8 264.533h-170.667l30.933 242.135-197.335-284.802h148.268l-32-221.867zM383.999 320h-132.267c-17.067 0-29.689 7.646-37.867 22.933-8.178 15.292-7.289 30.046 2.667 44.267l318.935 458.668c7.108 9.955 16.354 16.889 27.733 20.8 11.375 3.911 23.108 3.733 35.2-0.533 12.087-4.267 20.975-11.733 26.667-22.4 5.687-10.667 7.821-22.045 6.4-34.134l-34.133-276.267h165.333c18.487 0 31.467-8.176 38.933-24.535 7.467-16.354 5.154-31.642-6.933-45.867l-350.933-420.267c-7.825-9.242-17.423-15.287-28.801-18.133-11.378-2.842-22.4-1.775-33.067 3.2-10.667 4.979-19.022 12.625-25.067 22.933-6.045 10.313-8.355 21.513-6.933 33.6l34.133 235.733z" />
<glyph unicode="&#xe918;" glyph-name="icon__build" data-tags="icon__build" d="M731.733 76.8l-258.133 260.267c-14.221-5.687-28.621-9.954-43.2-12.8-14.578-2.846-30.045-4.267-46.4-4.267-71.111 0-131.555 24.887-181.333 74.667s-74.667 110.221-74.667 181.333c0 25.6 3.555 49.955 10.667 73.067s17.067 44.978 29.867 65.6l155.733-155.733 76.8 76.8-155.733 155.733c20.622 12.8 42.489 22.755 65.6 29.867s47.467 10.667 73.067 10.667c71.113 0 131.554-24.889 181.333-74.667s74.667-110.222 74.667-181.333c0-16.355-1.421-31.822-4.267-46.4-2.846-14.579-7.113-28.979-12.8-43.2l260.267-258.133c8.533-8.533 12.8-18.846 12.8-30.933s-4.267-22.4-12.8-30.933l-89.6-89.6c-8.533-8.533-18.846-12.8-30.933-12.8s-22.4 4.267-30.933 12.8zM762.667 167.467l28.8 28.8-273.067 273.067c12.8 14.221 22.046 30.754 27.733 49.6s8.533 37.867 8.533 57.067c0 42.667-13.687 79.822-41.067 111.467s-61.333 50.667-101.867 57.067l78.933-78.933c8.533-8.533 12.8-18.489 12.8-29.867s-4.267-21.333-12.8-29.867l-136.533-136.533c-8.533-8.533-18.489-12.8-29.867-12.8s-21.333 4.267-29.867 12.8l-78.933 78.933c6.4-40.533 25.422-74.487 57.067-101.867s68.8-41.067 111.467-41.067c18.489 0 36.978 2.846 55.467 8.533 18.487 5.687 35.2 14.579 50.133 26.667l273.067-273.067z" />
<glyph unicode="&#xe919;" glyph-name="icon__cached" data-tags="icon__cached" d="M514.125 106.667c-95.289 0-176.355 33.067-243.2 99.2s-100.267 146.846-100.267 242.133v7.467l-38.4-38.4c-7.822-7.821-17.777-11.733-29.867-11.733s-22.044 3.913-29.867 11.733c-7.822 7.821-11.733 17.779-11.733 29.867s3.911 22.046 11.733 29.867l110.933 110.933c4.267 4.267 8.889 7.289 13.867 9.067s10.311 2.667 16 2.667c5.689 0 11.023-0.889 16-2.667s9.6-4.8 13.867-9.067l110.933-110.933c7.823-7.821 11.733-17.779 11.733-29.867s-3.911-22.046-11.733-29.867c-7.822-7.821-17.777-11.733-29.867-11.733s-22.044 3.913-29.867 11.733l-38.4 38.4v-7.467c0-71.113 25.067-131.554 75.2-181.333s111.113-74.667 182.933-74.667c14.221 0 28.087 1.246 41.6 3.733s27.021 6.221 40.533 11.2c7.113 2.846 14.754 3.554 22.933 2.133s15.113-4.979 20.8-10.667c12.8-12.8 17.954-26.487 15.467-41.067s-11.913-24.713-28.267-30.4c-18.487-6.4-37.154-11.379-56-14.933s-37.867-5.333-57.067-5.333zM810.658 296.533c-5.687 0-11.021 0.887-16 2.667s-9.6 4.8-13.867 9.067l-110.933 110.933c-7.821 7.821-11.733 17.779-11.733 29.867s3.913 22.046 11.733 29.867c7.821 7.821 17.779 11.733 29.867 11.733s22.046-3.913 29.867-11.733l38.4-38.4v7.467c0 71.113-25.067 131.555-75.2 181.333s-111.113 74.667-182.933 74.667c-14.221 0-28.087-1.245-41.6-3.733s-27.021-6.222-40.533-11.2c-7.111-2.845-14.755-3.555-22.933-2.133s-15.111 4.978-20.8 10.667c-12.8 12.8-17.955 26.489-15.467 41.067s11.911 24.711 28.267 30.4c18.489 6.4 37.154 11.378 56 14.933s37.867 5.333 57.067 5.333c95.287 0 176.354-33.067 243.2-99.2s100.267-146.845 100.267-242.133v-7.467l38.4 38.4c7.821 7.821 17.779 11.733 29.867 11.733s22.046-3.913 29.867-11.733c7.821-7.821 11.733-17.779 11.733-29.867s-3.913-22.046-11.733-29.867l-110.933-110.933c-4.267-4.267-8.887-7.287-13.867-9.067s-10.313-2.667-16-2.667z" />
<glyph unicode="&#xe91a;" glyph-name="icon__calculate" data-tags="icon__calculate" d="M298.667 567.467h149.333c9.246 0 16.887 3.022 22.933 9.067s9.067 13.689 9.067 22.933c0 9.245-3.021 16.889-9.067 22.933s-13.687 9.067-22.933 9.067h-149.333c-9.245 0-16.889-3.022-22.933-9.067s-9.067-13.689-9.067-22.933c0-9.245 3.022-16.889 9.067-22.933s13.689-9.067 22.933-9.067zM586.667 224h149.333c9.246 0 16.887 3.021 22.933 9.067s9.067 13.687 9.067 22.933c0 9.246-3.021 16.887-9.067 22.933s-13.687 9.067-22.933 9.067h-149.333c-9.246 0-16.887-3.021-22.933-9.067s-9.067-13.687-9.067-22.933c0-9.246 3.021-16.887 9.067-22.933s13.687-9.067 22.933-9.067zM586.667 330.667h149.333c9.246 0 16.887 3.021 22.933 9.067s9.067 13.687 9.067 22.933c0 9.246-3.021 16.887-9.067 22.933s-13.687 9.067-22.933 9.067h-149.333c-9.246 0-16.887-3.021-22.933-9.067s-9.067-13.687-9.067-22.933c0-9.246 3.021-16.887 9.067-22.933s13.687-9.067 22.933-9.067zM373.333 192c9.245 0 16.889 3.021 22.933 9.067s9.067 13.687 9.067 22.933v53.333h53.333c9.246 0 16.887 3.021 22.933 9.067s9.067 13.687 9.067 22.933c0 9.246-3.021 16.887-9.067 22.933s-13.687 9.067-22.933 9.067h-53.333v53.333c0 9.246-3.022 16.887-9.067 22.933s-13.689 9.067-22.933 9.067c-9.245 0-16.889-3.021-22.933-9.067s-9.067-13.687-9.067-22.933v-53.333h-53.333c-9.245 0-16.889-3.021-22.933-9.067s-9.067-13.687-9.067-22.933c0-9.246 3.022-16.887 9.067-22.933s13.689-9.067 22.933-9.067h53.333v-53.333c0-9.246 3.022-16.887 9.067-22.933s13.689-9.067 22.933-9.067zM579.2 515.2c6.4-6.4 13.867-9.6 22.4-9.6s16 3.2 22.4 9.6l37.333 37.333 38.4-38.4c5.687-5.687 12.8-8.533 21.333-8.533s16 3.2 22.4 9.6c5.687 5.687 8.533 12.979 8.533 21.867 0 8.889-2.846 16.533-8.533 22.933l-37.333 39.467 38.4 38.4c5.687 5.689 8.533 12.8 8.533 21.333s-3.2 16-9.6 22.4c-6.4 6.4-13.867 9.6-22.4 9.6s-16-3.2-22.4-9.6l-37.333-37.333-38.4 38.4c-5.687 5.689-12.8 8.533-21.333 8.533s-16-3.2-22.4-9.6c-6.4-6.4-9.6-13.867-9.6-22.4s3.2-16 9.6-22.4l37.333-37.333-38.4-39.467c-5.687-6.4-8.533-13.867-8.533-22.4s3.2-16 9.6-22.4zM213.333 64c-23.467 0-43.555 8.354-60.267 25.067s-25.067 36.8-25.067 60.267v597.333c0 23.467 8.355 43.555 25.067 60.267s36.8 25.067 60.267 25.067h597.333c23.467 0 43.554-8.355 60.267-25.067s25.067-36.8 25.067-60.267v-597.333c0-23.467-8.354-43.554-25.067-60.267s-36.8-25.067-60.267-25.067h-597.333zM213.333 149.333h597.333v597.333h-597.333v-597.333z" />
<glyph unicode="&#xe91b;" glyph-name="icon__calendar-month" data-tags="icon__calendar-month" d="M512 362.667c-12.087 0-22.221 4.087-30.4 12.267s-12.267 18.313-12.267 30.4c0 12.087 4.087 22.221 12.267 30.4s18.313 12.267 30.4 12.267c12.087 0 22.221-4.087 30.4-12.267s12.267-18.313 12.267-30.4c0-12.087-4.087-22.221-12.267-30.4s-18.313-12.267-30.4-12.267zM341.333 362.667c-12.089 0-22.222 4.087-30.4 12.267s-12.267 18.313-12.267 30.4c0 12.087 4.089 22.221 12.267 30.4s18.311 12.267 30.4 12.267c12.089 0 22.222-4.087 30.4-12.267s12.267-18.313 12.267-30.4c0-12.087-4.089-22.221-12.267-30.4s-18.311-12.267-30.4-12.267zM682.667 362.667c-12.087 0-22.221 4.087-30.4 12.267s-12.267 18.313-12.267 30.4c0 12.087 4.087 22.221 12.267 30.4s18.313 12.267 30.4 12.267c12.087 0 22.221-4.087 30.4-12.267s12.267-18.313 12.267-30.4c0-12.087-4.087-22.221-12.267-30.4s-18.313-12.267-30.4-12.267zM512 192c-12.087 0-22.221 4.087-30.4 12.267s-12.267 18.313-12.267 30.4c0 12.087 4.087 22.221 12.267 30.4s18.313 12.267 30.4 12.267c12.087 0 22.221-4.087 30.4-12.267s12.267-18.313 12.267-30.4c0-12.087-4.087-22.221-12.267-30.4s-18.313-12.267-30.4-12.267zM341.333 192c-12.089 0-22.222 4.087-30.4 12.267s-12.267 18.313-12.267 30.4c0 12.087 4.089 22.221 12.267 30.4s18.311 12.267 30.4 12.267c12.089 0 22.222-4.087 30.4-12.267s12.267-18.313 12.267-30.4c0-12.087-4.089-22.221-12.267-30.4s-18.311-12.267-30.4-12.267zM682.667 192c-12.087 0-22.221 4.087-30.4 12.267s-12.267 18.313-12.267 30.4c0 12.087 4.087 22.221 12.267 30.4s18.313 12.267 30.4 12.267c12.087 0 22.221-4.087 30.4-12.267s12.267-18.313 12.267-30.4c0-12.087-4.087-22.221-12.267-30.4s-18.313-12.267-30.4-12.267zM213.333 21.333c-23.467 0-43.555 8.354-60.267 25.067s-25.067 36.8-25.067 60.267v597.333c0 23.467 8.355 43.555 25.067 60.267s36.8 25.067 60.267 25.067h42.667v42.667c0 12.089 4.089 22.222 12.267 30.4s18.311 12.267 30.4 12.267c12.089 0 22.222-4.089 30.4-12.267s12.267-18.311 12.267-30.4v-42.667h341.333v42.667c0 12.089 4.087 22.222 12.267 30.4s18.313 12.267 30.4 12.267c12.087 0 22.221-4.089 30.4-12.267s12.267-18.311 12.267-30.4v-42.667h42.667c23.467 0 43.554-8.355 60.267-25.067s25.067-36.8 25.067-60.267v-597.333c0-23.467-8.354-43.554-25.067-60.267s-36.8-25.067-60.267-25.067h-597.333zM213.333 106.667h597.333v426.667h-597.333v-426.667zM213.333 618.667h597.333v85.333h-597.333v-85.333z" />
<glyph unicode="&#xe91c;" glyph-name="icon__calendar-today" data-tags="icon__calendar-today" d="M213.333 21.333c-23.467 0-43.555 8.354-60.267 25.067s-25.067 36.8-25.067 60.267v597.333c0 23.467 8.355 43.555 25.067 60.267s36.8 25.067 60.267 25.067h42.667v43.733c0 12.089 4.089 22.045 12.267 29.867s18.311 11.733 30.4 11.733c12.089 0 22.222-4.089 30.4-12.267s12.267-18.311 12.267-30.4v-42.667h341.333v43.733c0 12.089 4.087 22.045 12.267 29.867s18.313 11.733 30.4 11.733c12.087 0 22.221-4.089 30.4-12.267s12.267-18.311 12.267-30.4v-42.667h42.667c23.467 0 43.554-8.355 60.267-25.067s25.067-36.8 25.067-60.267v-597.333c0-23.467-8.354-43.554-25.067-60.267s-36.8-25.067-60.267-25.067h-597.333zM213.333 106.667h597.333v426.667h-597.333v-426.667zM213.333 618.667h597.333v85.333h-597.333v-85.333z" />
<glyph unicode="&#xe91d;" glyph-name="icon__call" data-tags="icon__call" d="M851.2 64c-91.733 0-181.154 20.446-268.267 61.333s-164.267 94.933-231.467 162.133c-67.2 67.2-121.245 144.354-162.133 231.467-40.889 87.111-61.333 176.533-61.333 268.267 0 12.8 4.267 23.467 12.8 32s19.2 12.8 32 12.8h172.8c9.955 0 18.845-3.2 26.667-9.6s12.445-14.578 13.867-24.533l27.733-149.333c1.422-9.955 1.245-19.022-0.533-27.2s-5.867-15.467-12.267-21.867l-103.467-104.533c29.867-51.2 67.378-99.2 112.533-144 45.154-44.8 94.754-83.554 148.8-116.267l100.267 100.267c6.4 6.4 14.754 11.2 25.067 14.4s20.446 4.087 30.4 2.667l147.2-29.867c9.954-2.133 18.133-6.933 24.533-14.4s9.6-16.179 9.6-26.133v-172.8c0-12.8-4.267-23.467-12.8-32s-19.2-12.8-32-12.8zM257.067 576l70.4 70.4-18.133 100.267h-94.933c3.555-29.155 8.533-57.955 14.933-86.4s15.645-56.533 27.733-84.267zM810.667 151.467v93.867l-100.267 20.267-71.467-71.467c27.733-12.087 56-21.687 84.8-28.8s57.779-11.733 86.933-13.867z" />
<glyph unicode="&#xe91e;" glyph-name="icon__cancel" data-tags="icon__cancel" d="M512 388.267l123.733-123.733c7.821-7.821 17.779-11.733 29.867-11.733s22.046 3.913 29.867 11.733c7.821 7.821 11.733 17.779 11.733 29.867s-3.913 22.046-11.733 29.867l-123.733 123.733 123.733 123.733c7.821 7.822 11.733 17.778 11.733 29.867s-3.913 22.045-11.733 29.867c-7.821 7.822-17.779 11.733-29.867 11.733s-22.046-3.911-29.867-11.733l-123.733-123.733-123.733 123.733c-7.822 7.822-17.778 11.733-29.867 11.733s-22.045-3.911-29.867-11.733c-7.822-7.822-11.733-17.778-11.733-29.867s3.911-22.045 11.733-29.867l123.733-123.733-123.733-123.733c-7.822-7.821-11.733-17.779-11.733-29.867s3.911-22.046 11.733-29.867c7.822-7.821 17.778-11.733 29.867-11.733s22.045 3.913 29.867 11.733l123.733 123.733zM512 21.333c-59.021 0-114.489 11.2-166.4 33.6s-97.067 52.8-135.467 91.2c-38.4 38.4-68.8 83.554-91.2 135.467s-33.6 107.379-33.6 166.4c0 59.021 11.2 114.489 33.6 166.4s52.8 97.067 91.2 135.467c38.4 38.4 83.555 68.8 135.467 91.2s107.379 33.6 166.4 33.6c59.021 0 114.487-11.2 166.4-33.6s97.067-52.8 135.467-91.2c38.4-38.4 68.8-83.555 91.2-135.467s33.6-107.379 33.6-166.4c0-59.021-11.2-114.487-33.6-166.4s-52.8-97.067-91.2-135.467c-38.4-38.4-83.554-68.8-135.467-91.2s-107.379-33.6-166.4-33.6zM512 106.667c95.287 0 176 33.067 242.133 99.2s99.2 146.846 99.2 242.133c0 95.289-33.067 176-99.2 242.133s-146.846 99.2-242.133 99.2c-95.289 0-176-33.067-242.133-99.2s-99.2-146.845-99.2-242.133c0-95.287 33.067-176 99.2-242.133s146.845-99.2 242.133-99.2z" />
<glyph unicode="&#xe91f;" glyph-name="icon__chat" data-tags="icon__chat" d="M256 362.667h341.333v85.333h-341.333v-85.333zM256 490.667h512v85.333h-512v-85.333zM256 618.667h512v85.333h-512v-85.333zM85.333 21.333v768c0 23.467 8.355 43.555 25.067 60.267s36.8 25.067 60.267 25.067h682.667c23.467 0 43.554-8.355 60.267-25.067s25.067-36.8 25.067-60.267v-512c0-23.467-8.354-43.554-25.067-60.267s-36.8-25.067-60.267-25.067h-597.333l-170.667-170.667zM170.667 227.2l50.133 50.133h632.533v512h-682.667v-562.133z" />
<glyph unicode="&#xe920;" glyph-name="icon__x-twitter" data-tags="x-twitter" d="M716.924 768h108.615l-237.231-271.076 279.076-368.924h-218.462l-171.231 223.693-195.693-223.693h-108.769l253.693 290-267.538 350h224l154.615-204.462 178.924 204.462zM678.769 192.924h60.155l-388.307 513.538h-64.615l392.769-513.538z" />
<glyph unicode="&#xe921;" glyph-name="icon__chat-bubble" data-tags="icon__chat-bubble" d="M85.333 21.333v768c0 23.467 8.355 43.555 25.067 60.267s36.8 25.067 60.267 25.067h682.667c23.467 0 43.554-8.355 60.267-25.067s25.067-36.8 25.067-60.267v-512c0-23.467-8.354-43.554-25.067-60.267s-36.8-25.067-60.267-25.067h-597.333l-170.667-170.667zM170.667 227.2l50.133 50.133h632.533v512h-682.667v-562.133z" />
<glyph unicode="&#xe922;" glyph-name="icon__check" data-tags="icon__check" d="M407.473 210.138c-5.689 0-11.022 0.887-16 2.667s-9.6 4.8-13.867 9.067l-183.467 183.467c-7.822 7.821-11.555 17.954-11.2 30.4s4.445 22.579 12.267 30.4c7.823 7.821 17.778 11.733 29.867 11.733s22.045-3.913 29.867-11.733l152.533-152.533 361.602 361.6c7.821 7.822 17.954 11.733 30.4 11.733 12.442 0 22.575-3.911 30.4-11.733 7.821-7.823 11.733-17.956 11.733-30.4s-3.913-22.578-11.733-30.4l-392.533-392.533c-4.267-4.267-8.892-7.287-13.869-9.067s-10.311-2.667-16-2.667z" />
<glyph unicode="&#xe923;" glyph-name="icon__check-circle" data-tags="icon__check-circle" d="M452.267 371.2l-91.733 91.733c-7.822 7.821-17.778 11.733-29.867 11.733s-22.045-3.913-29.867-11.733c-7.822-7.821-11.733-17.779-11.733-29.867s3.911-22.046 11.733-29.867l121.6-121.6c8.533-8.533 18.487-12.8 29.867-12.8s21.333 4.267 29.867 12.8l241.067 241.067c7.821 7.821 11.733 17.778 11.733 29.867s-3.913 22.045-11.733 29.867c-7.821 7.822-17.779 11.733-29.867 11.733s-22.046-3.911-29.867-11.733l-211.2-211.2zM512 21.333c-59.021 0-114.489 11.2-166.4 33.6s-97.067 52.8-135.467 91.2c-38.4 38.4-68.8 83.554-91.2 135.467s-33.6 107.379-33.6 166.4c0 59.021 11.2 114.489 33.6 166.4s52.8 97.067 91.2 135.467c38.4 38.4 83.555 68.8 135.467 91.2s107.379 33.6 166.4 33.6c59.021 0 114.487-11.2 166.4-33.6s97.067-52.8 135.467-91.2c38.4-38.4 68.8-83.555 91.2-135.467s33.6-107.379 33.6-166.4c0-59.021-11.2-114.487-33.6-166.4s-52.8-97.067-91.2-135.467c-38.4-38.4-83.554-68.8-135.467-91.2s-107.379-33.6-166.4-33.6zM512 106.667c95.287 0 176 33.067 242.133 99.2s99.2 146.846 99.2 242.133c0 95.289-33.067 176-99.2 242.133s-146.846 99.2-242.133 99.2c-95.289 0-176-33.067-242.133-99.2s-99.2-146.845-99.2-242.133c0-95.287 33.067-176 99.2-242.133s146.845-99.2 242.133-99.2z" />
<glyph unicode="&#xe924;" glyph-name="icon__chevron-left" data-tags="icon__chevron-left" d="M567.458 221.867l-196.267 196.267c-4.267 4.267-7.289 8.887-9.067 13.867-1.777 4.975-2.667 10.308-2.667 16 0 5.687 0.889 11.021 2.667 16 1.778 4.975 4.8 9.6 9.067 13.867l196.267 196.265c7.821 7.822 17.779 11.733 29.867 11.733s22.046-3.911 29.867-11.733c7.821-7.822 11.733-17.778 11.733-29.867s-3.913-22.045-11.733-29.867l-166.4-166.398 166.4-166.4c7.821-7.825 11.733-17.779 11.733-29.867 0-12.092-3.913-22.046-11.733-29.867-7.821-7.825-17.779-11.733-29.867-11.733s-22.046 3.908-29.867 11.733z" />
<glyph unicode="&#xe925;" glyph-name="icon__chevron-right" data-tags="icon__chevron-right" d="M371.191 221.867c-7.822 7.821-11.733 17.775-11.733 29.867 0 12.087 3.911 22.042 11.733 29.867l166.4 166.4-166.4 166.398c-7.822 7.822-11.733 17.778-11.733 29.867s3.911 22.045 11.733 29.867c7.823 7.822 17.778 11.733 29.867 11.733s22.045-3.911 29.867-11.733l196.267-196.265c4.267-4.267 7.287-8.892 9.067-13.867 1.779-4.979 2.667-10.313 2.667-16 0-5.692-0.887-11.025-2.667-16-1.779-4.979-4.8-9.6-9.067-13.867l-196.267-196.267c-7.822-7.825-17.777-11.733-29.867-11.733s-22.044 3.908-29.867 11.733z" />
<glyph unicode="&#xe926;" glyph-name="icon__close" data-tags="icon__close" d="M511.991 388.267l-209.067-209.067c-7.822-7.825-17.777-11.733-29.867-11.733s-22.044 3.908-29.867 11.733c-7.822 7.821-11.733 17.775-11.733 29.867 0 12.087 3.911 22.042 11.733 29.867l209.067 209.067-209.067 209.065c-7.822 7.822-11.733 17.778-11.733 29.867s3.911 22.045 11.733 29.867c7.823 7.822 17.778 11.733 29.867 11.733s22.045-3.911 29.867-11.733l209.067-209.065 209.067 209.065c7.821 7.822 17.779 11.733 29.867 11.733s22.046-3.911 29.867-11.733c7.821-7.822 11.733-17.778 11.733-29.867s-3.913-22.045-11.733-29.867l-209.067-209.065 209.067-209.067c7.821-7.825 11.733-17.779 11.733-29.867 0-12.092-3.913-22.046-11.733-29.867-7.821-7.825-17.779-11.733-29.867-11.733s-22.046 3.908-29.867 11.733l-209.067 209.067z" />
<glyph unicode="&#xe927;" glyph-name="icon__close-fullscreen" data-tags="icon__close-fullscreen" d="M554.658 448c-12.087 0-22.221 4.087-30.4 12.267-8.179 8.175-12.267 18.308-12.267 30.4v255.998c0 12.089 4.087 22.222 12.267 30.4s18.313 12.267 30.4 12.267c12.087 0 22.221-4.089 30.4-12.267s12.267-18.311 12.267-30.4v-153.6l251.733 251.733c7.821 7.822 17.779 11.733 29.867 11.733s22.046-3.911 29.867-11.733c7.821-7.822 11.733-17.778 11.733-29.867s-3.913-22.045-11.733-29.867l-251.733-251.731h153.6c12.087 0 22.221-4.092 30.4-12.267 8.179-8.179 12.267-18.313 12.267-30.4 0-12.092-4.087-22.225-12.267-30.4-8.179-8.179-18.313-12.267-30.4-12.267h-256zM115.191 51.2c-7.822 7.821-11.733 17.775-11.733 29.867 0 12.087 3.911 22.042 11.733 29.867l251.733 251.733h-153.6c-12.089 0-22.222 4.087-30.4 12.267-8.177 8.175-12.267 18.308-12.267 30.4 0 12.087 4.089 22.221 12.267 30.4 8.178 8.175 18.311 12.267 30.4 12.267h256c12.087 0 22.221-4.092 30.4-12.267 8.179-8.179 12.267-18.313 12.267-30.4v-256c0-12.092-4.087-22.225-12.267-30.4-8.179-8.179-18.313-12.267-30.4-12.267s-22.221 4.087-30.4 12.267c-8.179 8.175-12.267 18.308-12.267 30.4v153.6l-251.733-251.733c-7.822-7.825-17.777-11.733-29.867-11.733s-22.044 3.908-29.867 11.733z" />
<glyph unicode="&#xe928;" glyph-name="icon__content-copy" data-tags="icon__content-copy" d="M213.333 21.333c-23.467 0-43.555 8.354-60.267 25.067s-25.067 36.8-25.067 60.267v597.333h85.333v-597.333h469.333v-85.333h-469.333zM384 192c-23.467 0-43.555 8.354-60.267 25.067s-25.067 36.8-25.067 60.267v512c0 23.467 8.355 43.555 25.067 60.267s36.8 25.067 60.267 25.067h384c23.467 0 43.554-8.355 60.267-25.067s25.067-36.8 25.067-60.267v-512c0-23.467-8.354-43.554-25.067-60.267s-36.8-25.067-60.267-25.067h-384zM384 277.333h384v512h-384v-512z" />
<glyph unicode="&#xe929;" glyph-name="icon__content-cut" data-tags="icon__content-cut" d="M836.267 38.4l-324.267 324.267-100.267-100.267c5.689-10.667 9.6-22.042 11.733-34.133 2.133-12.087 3.2-24.175 3.2-36.267 0-46.933-16.711-87.108-50.133-120.533-33.422-33.421-73.6-50.133-120.533-50.133s-87.111 16.713-120.533 50.133c-33.422 33.425-50.133 73.6-50.133 120.533s16.711 87.113 50.133 120.533c33.422 33.425 73.6 50.133 120.533 50.133 12.089 0 24.178-1.067 36.267-3.2s23.467-6.042 34.133-11.733l100.267 100.267-100.267 100.268c-10.667-5.689-22.045-9.6-34.133-11.733s-24.178-3.2-36.267-3.2c-46.933 0-87.111 16.711-120.533 50.133s-50.133 73.6-50.133 120.533c0 46.933 16.711 87.111 50.133 120.533s73.6 50.133 120.533 50.133c46.933 0 87.111-16.711 120.533-50.133s50.133-73.6 50.133-120.533c0-12.089-1.067-24.177-3.2-36.267s-6.045-23.467-11.733-34.133l509.867-509.868c12.087-12.087 18.133-26.308 18.133-42.667 0-16.354-6.046-30.575-18.133-42.667-12.087-12.087-26.313-18.133-42.667-18.133s-30.579 6.046-42.667 18.133zM640 490.667l-85.333 85.334 281.6 281.6c12.087 12.089 26.313 18.133 42.667 18.133s30.579-6.044 42.667-18.133c12.087-12.089 18.133-26.311 18.133-42.667s-6.046-30.577-18.133-42.667l-281.6-281.601zM256 618.668c23.467 0 43.555 8.356 60.267 25.067s25.067 36.8 25.067 60.267c0 23.467-8.355 43.556-25.067 60.267s-36.8 25.067-60.267 25.067c-23.467 0-43.555-8.355-60.267-25.067s-25.067-36.8-25.067-60.267c0-23.467 8.355-43.555 25.067-60.267s36.8-25.067 60.267-25.067zM512 426.667c6.4 0 11.554 1.958 15.467 5.867 3.913 3.913 5.867 9.067 5.867 15.467s-1.954 11.558-5.867 15.467c-3.913 3.913-9.067 5.867-15.467 5.867s-11.554-1.954-15.467-5.867c-3.913-3.908-5.867-9.067-5.867-15.467s1.954-11.554 5.867-15.467c3.913-3.908 9.067-5.867 15.467-5.867zM256 106.667c23.467 0 43.555 8.358 60.267 25.067 16.711 16.713 25.067 36.8 25.067 60.267s-8.355 43.558-25.067 60.267c-16.711 16.713-36.8 25.067-60.267 25.067s-43.555-8.354-60.267-25.067c-16.711-16.708-25.067-36.8-25.067-60.267s8.355-43.554 25.067-60.267c16.711-16.708 36.8-25.067 60.267-25.067z" />
<glyph unicode="&#xe92a;" glyph-name="icon__credit-card" data-tags="icon__credit-card" d="M938.667 704v-512c0-23.467-8.354-43.554-25.067-60.267s-36.8-25.067-60.267-25.067h-682.667c-23.467 0-43.555 8.354-60.267 25.067s-25.067 36.8-25.067 60.267v512c0 23.467 8.355 43.555 25.067 60.267s36.8 25.067 60.267 25.067h682.667c23.467 0 43.554-8.355 60.267-25.067s25.067-36.8 25.067-60.267zM170.667 618.667h682.667v85.333h-682.667v-85.333zM170.667 448v-256h682.667v256h-682.667z" />
<glyph unicode="&#xe92b;" glyph-name="icon__crop" data-tags="icon__crop" d="M725.333 320v341.333h-341.333v85.333h341.333c23.467 0 43.554-8.355 60.267-25.067s25.067-36.8 25.067-60.267v-341.333h-85.333zM768-21.333c-12.087 0-22.221 4.087-30.4 12.267s-12.267 18.313-12.267 30.4v128h-426.667c-23.467 0-43.555 8.354-60.267 25.067s-25.067 36.8-25.067 60.267v426.667h-128c-12.089 0-22.222 4.089-30.4 12.267s-12.267 18.311-12.267 30.4c0 12.089 4.089 22.222 12.267 30.4s18.311 12.267 30.4 12.267h128v128c0 12.089 4.089 22.222 12.267 30.4s18.311 12.267 30.4 12.267c12.089 0 22.222-4.089 30.4-12.267s12.267-18.311 12.267-30.4v-640h640c12.087 0 22.221-4.087 30.4-12.267s12.267-18.313 12.267-30.4c0-12.087-4.087-22.221-12.267-30.4s-18.313-12.267-30.4-12.267h-128v-128c0-12.087-4.087-22.221-12.267-30.4s-18.313-12.267-30.4-12.267z" />
<glyph unicode="&#xe92c;" glyph-name="icon__delete" data-tags="icon__delete" d="M298.667 64c-23.467 0-43.555 8.354-60.267 25.067s-25.067 36.8-25.067 60.267v554.667c-12.089 0-22.222 4.089-30.4 12.267s-12.267 18.311-12.267 30.4c0 12.089 4.089 22.222 12.267 30.4s18.311 12.267 30.4 12.267h170.667c0 12.089 4.089 22.222 12.267 30.4s18.311 12.267 30.4 12.267h170.667c12.087 0 22.221-4.089 30.4-12.267s12.267-18.311 12.267-30.4h170.667c12.087 0 22.221-4.089 30.4-12.267s12.267-18.311 12.267-30.4c0-12.089-4.087-22.222-12.267-30.4s-18.313-12.267-30.4-12.267v-554.667c0-23.467-8.354-43.554-25.067-60.267s-36.8-25.067-60.267-25.067h-426.667zM298.667 704v-554.667h426.667v554.667h-426.667zM384 277.333c0-12.087 4.089-22.221 12.267-30.4s18.311-12.267 30.4-12.267c12.087 0 22.221 4.087 30.4 12.267s12.267 18.313 12.267 30.4v298.667c0 12.089-4.087 22.222-12.267 30.4s-18.313 12.267-30.4 12.267c-12.089 0-22.222-4.089-30.4-12.267s-12.267-18.311-12.267-30.4v-298.667zM554.667 277.333c0-12.087 4.087-22.221 12.267-30.4s18.313-12.267 30.4-12.267c12.087 0 22.221 4.087 30.4 12.267s12.267 18.313 12.267 30.4v298.667c0 12.089-4.087 22.222-12.267 30.4s-18.313 12.267-30.4 12.267c-12.087 0-22.221-4.089-30.4-12.267s-12.267-18.311-12.267-30.4v-298.667z" />
<glyph unicode="&#xe92d;" glyph-name="icon__description" data-tags="icon__description" d="M384 192h256c12.087 0 22.221 4.087 30.4 12.267s12.267 18.313 12.267 30.4c0 12.087-4.087 22.221-12.267 30.4s-18.313 12.267-30.4 12.267h-256c-12.089 0-22.222-4.087-30.4-12.267s-12.267-18.313-12.267-30.4c0-12.087 4.089-22.221 12.267-30.4s18.311-12.267 30.4-12.267zM384 362.667h256c12.087 0 22.221 4.087 30.4 12.267s12.267 18.313 12.267 30.4c0 12.087-4.087 22.221-12.267 30.4s-18.313 12.267-30.4 12.267h-256c-12.089 0-22.222-4.087-30.4-12.267s-12.267-18.313-12.267-30.4c0-12.087 4.089-22.221 12.267-30.4s18.311-12.267 30.4-12.267zM256 21.333c-23.467 0-43.555 8.354-60.267 25.067s-25.067 36.8-25.067 60.267v682.667c0 23.467 8.355 43.555 25.067 60.267s36.8 25.067 60.267 25.067h306.133c11.379 0 22.221-2.133 32.533-6.4s19.379-10.311 27.2-18.133l206.933-206.933c7.821-7.822 13.867-16.889 18.133-27.2s6.4-21.155 6.4-32.533v-476.8c0-23.467-8.354-43.554-25.067-60.267s-36.8-25.067-60.267-25.067h-512zM554.667 618.667v170.667h-298.667v-682.667h512v469.333h-170.667c-12.087 0-22.221 4.089-30.4 12.267s-12.267 18.311-12.267 30.4z" />
<glyph unicode="&#xe92e;" glyph-name="icon__devices" data-tags="icon__devices" d="M170.667 234.667v469.333c0 23.467 8.355 43.555 25.067 60.267s36.8 25.067 60.267 25.067h597.333c12.087 0 22.221-4.089 30.4-12.267s12.267-18.311 12.267-30.4c0-12.089-4.087-22.222-12.267-30.4s-18.313-12.267-30.4-12.267h-597.333v-469.333h192c17.779 0 32.887-6.221 45.333-18.667s18.667-27.554 18.667-45.333c0-17.779-6.221-32.887-18.667-45.333s-27.554-18.667-45.333-18.667h-298.667c-17.778 0-32.889 6.221-45.333 18.667s-18.667 27.554-18.667 45.333c0 17.779 6.222 32.887 18.667 45.333s27.555 18.667 45.333 18.667h21.333zM640 106.667c-12.087 0-22.221 4.087-30.4 12.267s-12.267 18.313-12.267 30.4v426.667c0 12.089 4.087 22.222 12.267 30.4s18.313 12.267 30.4 12.267h256c12.087 0 22.221-4.089 30.4-12.267s12.267-18.311 12.267-30.4v-426.667c0-12.087-4.087-22.221-12.267-30.4s-18.313-12.267-30.4-12.267h-256zM682.667 234.667h170.667v298.667h-170.667v-298.667z" />
<glyph unicode="&#xe92f;" glyph-name="icon__do-not-disturb-on" data-tags="icon__do-not-disturb-on" d="M341.333 405.333h341.333c12.087 0 22.221 4.087 30.4 12.267s12.267 18.313 12.267 30.4c0 12.087-4.087 22.221-12.267 30.4s-18.313 12.267-30.4 12.267h-341.333c-12.089 0-22.222-4.087-30.4-12.267s-12.267-18.313-12.267-30.4c0-12.087 4.089-22.221 12.267-30.4s18.311-12.267 30.4-12.267zM512 21.333c-59.021 0-114.489 11.2-166.4 33.6s-97.067 52.8-135.467 91.2c-38.4 38.4-68.8 83.554-91.2 135.467s-33.6 107.379-33.6 166.4c0 59.021 11.2 114.489 33.6 166.4s52.8 97.067 91.2 135.467c38.4 38.4 83.555 68.8 135.467 91.2s107.379 33.6 166.4 33.6c59.021 0 114.487-11.2 166.4-33.6s97.067-52.8 135.467-91.2c38.4-38.4 68.8-83.555 91.2-135.467s33.6-107.379 33.6-166.4c0-59.021-11.2-114.487-33.6-166.4s-52.8-97.067-91.2-135.467c-38.4-38.4-83.554-68.8-135.467-91.2s-107.379-33.6-166.4-33.6zM512 106.667c95.287 0 176 33.067 242.133 99.2s99.2 146.846 99.2 242.133c0 95.289-33.067 176-99.2 242.133s-146.846 99.2-242.133 99.2c-95.289 0-176-33.067-242.133-99.2s-99.2-146.845-99.2-242.133c0-95.287 33.067-176 99.2-242.133s146.845-99.2 242.133-99.2z" />
<glyph unicode="&#xe930;" glyph-name="icon__download" data-tags="icon__download" d="M512 295.467c-5.687 0-11.021 0.887-16 2.667s-9.6 4.8-13.867 9.067l-153.6 153.6c-7.822 7.821-11.733 17.779-11.733 29.867s3.911 22.046 11.733 29.867c7.822 7.821 17.955 11.913 30.4 12.267s22.578-3.379 30.4-11.2l80-80v305.067c0 12.089 4.087 22.222 12.267 30.4s18.313 12.267 30.4 12.267c12.087 0 22.221-4.089 30.4-12.267s12.267-18.311 12.267-30.4v-305.067l80 80c7.821 7.821 17.954 11.554 30.4 11.2s22.579-4.446 30.4-12.267c7.821-7.821 11.733-17.779 11.733-29.867s-3.913-22.046-11.733-29.867l-153.6-153.6c-4.267-4.267-8.887-7.287-13.867-9.067s-10.313-2.667-16-2.667zM256 106.667c-23.467 0-43.555 8.354-60.267 25.067s-25.067 36.8-25.067 60.267v85.333c0 12.087 4.089 22.221 12.267 30.4s18.311 12.267 30.4 12.267c12.089 0 22.222-4.087 30.4-12.267s12.267-18.313 12.267-30.4v-85.333h512v85.333c0 12.087 4.087 22.221 12.267 30.4s18.313 12.267 30.4 12.267c12.087 0 22.221-4.087 30.4-12.267s12.267-18.313 12.267-30.4v-85.333c0-23.467-8.354-43.554-25.067-60.267s-36.8-25.067-60.267-25.067h-512z" />
<glyph unicode="&#xe931;" glyph-name="icon__drafts" data-tags="icon__drafts" d="M170.667 64c-23.467 0-43.555 8.358-60.267 25.067-16.711 16.713-25.067 36.8-25.067 60.267v462.935c0 14.933 3.555 29.155 10.667 42.667s17.067 24.178 29.867 32l342.4 204.8c7.113 4.267 14.221 7.289 21.333 9.067s14.579 2.667 22.4 2.667c7.821 0 15.287-0.889 22.4-2.667s14.221-4.8 21.333-9.067l342.4-204.8c12.8-7.822 22.754-18.489 29.867-32s10.667-27.733 10.667-42.667v-462.935c0-23.467-8.354-43.554-25.067-60.267-16.713-16.708-36.8-25.067-60.267-25.067h-682.667zM512 427.733c3.554 0 7.113 0.358 10.667 1.067 3.554 0.713 7.113 2.133 10.667 4.267l311.467 185.602-311.467 185.6c-3.554 2.133-7.113 3.555-10.667 4.267s-7.113 1.067-10.667 1.067c-3.554 0-7.113-0.355-10.667-1.067s-7.113-2.133-10.667-4.267l-311.467-185.6 311.467-185.602c3.554-2.133 7.113-3.554 10.667-4.267 3.554-0.708 7.113-1.067 10.667-1.067zM170.667 149.333h682.667v375.467l-297.6-178.133c-7.113-4.267-14.221-7.467-21.333-9.6s-14.579-3.2-22.4-3.2c-7.821 0-15.287 1.067-22.4 3.2s-14.221 5.333-21.333 9.6l-297.6 178.133v-375.467z" />
<glyph unicode="&#xe932;" glyph-name="icon__drag-indicator" data-tags="icon__drag-indicator" d="M384 106.667c-23.467 0-43.555 8.354-60.267 25.067s-25.067 36.8-25.067 60.267c0 23.467 8.355 43.554 25.067 60.267s36.8 25.067 60.267 25.067c23.467 0 43.554-8.354 60.267-25.067s25.067-36.8 25.067-60.267c0-23.467-8.354-43.554-25.067-60.267s-36.8-25.067-60.267-25.067zM640 106.667c-23.467 0-43.554 8.354-60.267 25.067s-25.067 36.8-25.067 60.267c0 23.467 8.354 43.554 25.067 60.267s36.8 25.067 60.267 25.067c23.467 0 43.554-8.354 60.267-25.067s25.067-36.8 25.067-60.267c0-23.467-8.354-43.554-25.067-60.267s-36.8-25.067-60.267-25.067zM384 362.667c-23.467 0-43.555 8.354-60.267 25.067s-25.067 36.8-25.067 60.267c0 23.467 8.355 43.554 25.067 60.267s36.8 25.067 60.267 25.067c23.467 0 43.554-8.354 60.267-25.067s25.067-36.8 25.067-60.267c0-23.467-8.354-43.554-25.067-60.267s-36.8-25.067-60.267-25.067zM640 362.667c-23.467 0-43.554 8.354-60.267 25.067s-25.067 36.8-25.067 60.267c0 23.467 8.354 43.554 25.067 60.267s36.8 25.067 60.267 25.067c23.467 0 43.554-8.354 60.267-25.067s25.067-36.8 25.067-60.267c0-23.467-8.354-43.554-25.067-60.267s-36.8-25.067-60.267-25.067zM384 618.667c-23.467 0-43.555 8.355-60.267 25.067s-25.067 36.8-25.067 60.267c0 23.467 8.355 43.555 25.067 60.267s36.8 25.067 60.267 25.067c23.467 0 43.554-8.355 60.267-25.067s25.067-36.8 25.067-60.267c0-23.467-8.354-43.555-25.067-60.267s-36.8-25.067-60.267-25.067zM640 618.667c-23.467 0-43.554 8.355-60.267 25.067s-25.067 36.8-25.067 60.267c0 23.467 8.354 43.555 25.067 60.267s36.8 25.067 60.267 25.067c23.467 0 43.554-8.355 60.267-25.067s25.067-36.8 25.067-60.267c0-23.467-8.354-43.555-25.067-60.267s-36.8-25.067-60.267-25.067z" />
<glyph unicode="&#xe933;" glyph-name="icon__edit" data-tags="icon__edit" d="M213.333 149.333h59.733l368 368-59.733 59.733-368-368v-59.733zM823.467 579.2l-181.333 179.2 59.733 59.733c16.354 16.355 36.446 24.533 60.267 24.533s43.913-8.178 60.267-24.533l59.733-59.733c16.354-16.355 24.887-36.089 25.6-59.2s-7.113-42.845-23.467-59.2l-60.8-60.8zM761.6 516.267l-452.267-452.267h-181.333v181.333l452.267 452.267 181.333-181.333zM611.2 547.2v0z" />
<glyph unicode="&#xe934;" glyph-name="icon__edit-document" data-tags="icon__edit-document" d="M256 21.333c-23.467 0-43.555 8.354-60.267 25.067s-25.067 36.8-25.067 60.267v682.667c0 23.467 8.355 43.555 25.067 60.267s36.8 25.067 60.267 25.067h306.133c11.379 0 22.221-2.133 32.533-6.4s19.379-10.311 27.2-18.133l206.933-206.933c7.821-7.822 13.867-16.889 18.133-27.2s6.4-21.155 6.4-32.533v-135.467h-85.333v128h-170.667c-12.087 0-22.221 4.089-30.4 12.267s-12.267 18.311-12.267 30.4v170.667h-298.667v-682.667h256v-85.333h-256zM780.8 340.267l45.867-45.867-165.333-164.267v-44.8h44.8l165.333 164.267 44.8-44.8-170.667-170.667c-4.267-4.267-9.067-7.467-14.4-9.6s-10.846-3.2-16.533-3.2h-96c-5.687 0-10.667 2.133-14.933 6.4s-6.4 9.246-6.4 14.933v96c0 5.687 1.067 11.2 3.2 16.533s5.333 10.133 9.6 14.4l170.667 170.667zM916.267 204.8l-135.467 135.467 61.867 61.867c7.821 7.821 17.779 11.733 29.867 11.733s22.046-3.913 29.867-11.733l75.733-75.733c7.821-7.821 11.733-17.779 11.733-29.867s-3.913-22.046-11.733-29.867l-61.867-61.867z" />
<glyph unicode="&#xe935;" glyph-name="icon__error" data-tags="icon__error" d="M512 234.667c12.087 0 22.221 4.087 30.4 12.267s12.267 18.313 12.267 30.4c0 12.087-4.087 22.221-12.267 30.4s-18.313 12.267-30.4 12.267c-12.087 0-22.221-4.087-30.4-12.267s-12.267-18.313-12.267-30.4c0-12.087 4.087-22.221 12.267-30.4s18.313-12.267 30.4-12.267zM512 405.333c12.087 0 22.221 4.087 30.4 12.267s12.267 18.313 12.267 30.4v170.667c0 12.089-4.087 22.222-12.267 30.4s-18.313 12.267-30.4 12.267c-12.087 0-22.221-4.089-30.4-12.267s-12.267-18.311-12.267-30.4v-170.667c0-12.087 4.087-22.221 12.267-30.4s18.313-12.267 30.4-12.267zM512 21.333c-59.021 0-114.489 11.2-166.4 33.6s-97.067 52.8-135.467 91.2c-38.4 38.4-68.8 83.554-91.2 135.467s-33.6 107.379-33.6 166.4c0 59.021 11.2 114.489 33.6 166.4s52.8 97.067 91.2 135.467c38.4 38.4 83.555 68.8 135.467 91.2s107.379 33.6 166.4 33.6c59.021 0 114.487-11.2 166.4-33.6s97.067-52.8 135.467-91.2c38.4-38.4 68.8-83.555 91.2-135.467s33.6-107.379 33.6-166.4c0-59.021-11.2-114.487-33.6-166.4s-52.8-97.067-91.2-135.467c-38.4-38.4-83.554-68.8-135.467-91.2s-107.379-33.6-166.4-33.6zM512 106.667c95.287 0 176 33.067 242.133 99.2s99.2 146.846 99.2 242.133c0 95.289-33.067 176-99.2 242.133s-146.846 99.2-242.133 99.2c-95.289 0-176-33.067-242.133-99.2s-99.2-146.845-99.2-242.133c0-95.287 33.067-176 99.2-242.133s146.845-99.2 242.133-99.2z" />
<glyph unicode="&#xe936;" glyph-name="icon__euro" data-tags="icon__euro" d="M640 64c-83.913 0-158.579 23.821-224 71.467-65.422 47.646-111.645 109.154-138.667 184.533h-149.333c-12.089 0-22.222 4.087-30.4 12.267s-12.267 18.313-12.267 30.4c0 12.087 4.089 22.221 12.267 30.4s18.311 12.267 30.4 12.267h130.133c-1.422 7.821-2.133 14.933-2.133 21.333v42.667c0 6.4 0.711 13.513 2.133 21.333h-130.133c-12.089 0-22.222 4.087-30.4 12.267s-12.267 18.313-12.267 30.4c0 12.089 4.089 22.222 12.267 30.4s18.311 12.267 30.4 12.267h149.333c27.022 75.378 73.245 136.889 138.667 184.533 65.421 47.645 140.087 71.467 224 71.467 39.113 0 76.267-5.333 111.467-16s68.087-25.955 98.667-45.867c12.8-8.533 19.733-20.622 20.8-36.267s-4.446-29.511-16.533-41.6c-8.533-8.533-19.379-13.511-32.533-14.933s-25.779 1.422-37.867 8.533c-21.333 12.089-44.087 21.689-68.267 28.8s-49.421 10.667-75.733 10.667c-53.333 0-101.867-13.689-145.6-41.067s-76.978-63.467-99.733-108.267h245.333c12.087 0 22.221-4.089 30.4-12.267s12.267-18.311 12.267-30.4c0-12.087-4.087-22.221-12.267-30.4s-18.313-12.267-30.4-12.267h-273.067c-1.422-7.821-2.489-14.933-3.2-21.333s-1.067-13.513-1.067-21.333c0-7.821 0.355-14.933 1.067-21.333s1.778-13.513 3.2-21.333h273.067c12.087 0 22.221-4.087 30.4-12.267s12.267-18.313 12.267-30.4c0-12.087-4.087-22.221-12.267-30.4s-18.313-12.267-30.4-12.267h-245.333c22.755-44.8 56-80.887 99.733-108.267s92.267-41.067 145.6-41.067c25.6 0 50.846 3.554 75.733 10.667s47.646 16.713 68.267 28.8c12.087 7.113 24.533 10.133 37.333 9.067s23.821-6.221 33.067-15.467c12.087-12.087 17.6-25.954 16.533-41.6s-8-27.733-20.8-36.267c-30.579-19.913-63.467-35.2-98.667-45.867s-72.354-16-111.467-16z" />
<glyph unicode="&#xe937;" glyph-name="icon__event-available" data-tags="icon__event-available" d="M437.333 206.933l-90.667 90.667c-8.533 8.533-12.8 18.846-12.8 30.933s4.267 22.4 12.8 30.933c8.533 8.533 18.845 12.8 30.933 12.8s22.4-4.267 30.933-12.8l58.667-58.667 148.267 148.267c8.533 8.533 18.846 12.8 30.933 12.8s22.4-4.267 30.933-12.8c8.533-8.533 12.8-18.846 12.8-30.933s-4.267-22.4-12.8-30.933l-180.267-180.267c-8.533-8.533-18.487-12.8-29.867-12.8s-21.333 4.267-29.867 12.8zM213.333 21.333c-23.467 0-43.555 8.354-60.267 25.067s-25.067 36.8-25.067 60.267v597.333c0 23.467 8.355 43.555 25.067 60.267s36.8 25.067 60.267 25.067h42.667v42.667c0 12.089 4.089 22.222 12.267 30.4s18.311 12.267 30.4 12.267c12.089 0 22.222-4.089 30.4-12.267s12.267-18.311 12.267-30.4v-42.667h341.333v42.667c0 12.089 4.087 22.222 12.267 30.4s18.313 12.267 30.4 12.267c12.087 0 22.221-4.089 30.4-12.267s12.267-18.311 12.267-30.4v-42.667h42.667c23.467 0 43.554-8.355 60.267-25.067s25.067-36.8 25.067-60.267v-597.333c0-23.467-8.354-43.554-25.067-60.267s-36.8-25.067-60.267-25.067h-597.333zM213.333 106.667h597.333v426.667h-597.333v-426.667zM213.333 618.667h597.333v85.333h-597.333v-85.333z" />
<glyph unicode="&#xe938;" glyph-name="icon__event-busy" data-tags="icon__event-busy" d="M512 260.267l-68.267-68.267c-7.821-7.821-17.778-11.733-29.867-11.733s-22.045 3.913-29.867 11.733c-7.822 7.821-11.733 17.779-11.733 29.867s3.911 22.046 11.733 29.867l68.267 68.267-68.267 68.267c-7.822 7.821-11.733 17.779-11.733 29.867s3.911 22.046 11.733 29.867c7.822 7.821 17.778 11.733 29.867 11.733s22.046-3.913 29.867-11.733l68.267-68.267 68.267 68.267c7.821 7.821 17.779 11.733 29.867 11.733s22.046-3.913 29.867-11.733c7.821-7.821 11.733-17.779 11.733-29.867s-3.913-22.046-11.733-29.867l-68.267-68.267 68.267-68.267c7.821-7.821 11.733-17.779 11.733-29.867s-3.913-22.046-11.733-29.867c-7.821-7.821-17.779-11.733-29.867-11.733s-22.046 3.913-29.867 11.733l-68.267 68.267zM213.333 21.333c-23.467 0-43.555 8.354-60.267 25.067s-25.067 36.8-25.067 60.267v597.333c0 23.467 8.355 43.555 25.067 60.267s36.8 25.067 60.267 25.067h42.667v42.667c0 12.089 4.089 22.222 12.267 30.4s18.311 12.267 30.4 12.267c12.089 0 22.222-4.089 30.4-12.267s12.267-18.311 12.267-30.4v-42.667h341.333v42.667c0 12.089 4.087 22.222 12.267 30.4s18.313 12.267 30.4 12.267c12.087 0 22.221-4.089 30.4-12.267s12.267-18.311 12.267-30.4v-42.667h42.667c23.467 0 43.554-8.355 60.267-25.067s25.067-36.8 25.067-60.267v-597.333c0-23.467-8.354-43.554-25.067-60.267s-36.8-25.067-60.267-25.067h-597.333zM213.333 106.667h597.333v426.667h-597.333v-426.667zM213.333 618.667h597.333v85.333h-597.333v-85.333z" />
<glyph unicode="&#xe939;" glyph-name="icon__expand-less" data-tags="icon__expand-less" d="M285.858 333.871c-7.822 7.821-11.733 17.779-11.733 29.867s3.911 22.046 11.733 29.867l196.267 196.267c4.267 4.267 8.887 7.289 13.867 9.067s10.313 2.667 16 2.667c5.687 0 11.021-0.889 16-2.667s9.6-4.8 13.867-9.067l197.333-197.333c7.821-7.821 11.733-17.421 11.733-28.8s-4.267-21.333-12.8-29.867c-7.821-7.821-17.779-11.733-29.867-11.733s-22.046 3.913-29.867 11.733l-166.4 166.4-167.467-167.467c-7.822-7.821-17.422-11.733-28.8-11.733s-21.333 4.267-29.867 12.8z" />
<glyph unicode="&#xe93a;" glyph-name="icon__expand-more" data-tags="icon__expand-more" d="M512.009 322.133c-5.692 0-11.025 0.887-16 2.667-4.979 1.779-9.6 4.8-13.867 9.067l-197.335 197.333c-7.822 7.822-11.555 17.6-11.2 29.333s4.445 21.511 12.267 29.333c7.823 7.823 17.778 11.733 29.867 11.733s22.045-3.911 29.867-11.733l166.402-166.4 167.467 167.466c7.821 7.823 17.6 11.556 29.333 11.2s21.508-4.444 29.333-12.267c7.821-7.822 11.733-17.777 11.733-29.867s-3.913-22.044-11.733-29.866l-196.267-196.267c-4.267-4.267-8.892-7.287-13.867-9.067-4.979-1.779-10.313-2.667-16-2.667z" />
<glyph unicode="&#xe93b;" glyph-name="icon__explore" data-tags="icon__explore" d="M512 405.333c-12.087 0-22.221 4.087-30.4 12.267s-12.267 18.313-12.267 30.4c0 12.087 4.087 22.221 12.267 30.4s18.313 12.267 30.4 12.267c12.087 0 22.221-4.087 30.4-12.267s12.267-18.313 12.267-30.4c0-12.087-4.087-22.221-12.267-30.4s-18.313-12.267-30.4-12.267zM512 21.333c-59.021 0-114.489 11.2-166.4 33.6s-97.067 52.8-135.467 91.2c-38.4 38.4-68.8 83.554-91.2 135.467s-33.6 107.379-33.6 166.4c0 59.021 11.2 114.489 33.6 166.4s52.8 97.067 91.2 135.467c38.4 38.4 83.555 68.8 135.467 91.2s107.379 33.6 166.4 33.6c59.021 0 114.487-11.2 166.4-33.6s97.067-52.8 135.467-91.2c38.4-38.4 68.8-83.555 91.2-135.467s33.6-107.379 33.6-166.4c0-59.021-11.2-114.487-33.6-166.4s-52.8-97.067-91.2-135.467c-38.4-38.4-83.554-68.8-135.467-91.2s-107.379-33.6-166.4-33.6zM512 106.667c95.287 0 176 33.067 242.133 99.2s99.2 146.846 99.2 242.133c0 95.289-33.067 176-99.2 242.133s-146.846 99.2-242.133 99.2c-95.289 0-176-33.067-242.133-99.2s-99.2-146.845-99.2-242.133c0-95.287 33.067-176 99.2-242.133s146.845-99.2 242.133-99.2zM316.8 231.467l266.667 124.8c4.267 2.133 8.179 4.979 11.733 8.533s6.4 7.467 8.533 11.733l124.8 266.667c3.554 7.111 2.667 13.333-2.667 18.667s-11.554 6.222-18.667 2.667l-266.667-124.8c-4.267-2.133-8.179-4.978-11.733-8.533-3.555-3.554-6.4-7.467-8.533-11.733l-124.8-266.667c-3.555-7.113-2.667-13.333 2.667-18.667s11.555-6.221 18.667-2.667z" />
<glyph unicode="&#xe93c;" glyph-name="icon__facebook" data-tags="icon__facebook" d="M580.267 21.333v388.267h123.733l17.067 153.6h-145.067v98.133c0 42.667 12.8 72.533 72.533 72.533h76.8v136.533c-12.8 0-59.733 4.267-110.933 4.267-110.933 0-187.733-72.533-187.733-200.533v-110.933h-128v-153.6h128v-388.267h153.6z" />
<glyph unicode="&#xe93d;" glyph-name="icon__face-id-logo" data-tags="icon__face-id-logo" d="M52.663 679.131v114.103c0 64.452 49.651 114.103 114.103 114.103h114.103c14.543 0 26.331 11.789 26.331 26.332s-11.789 26.331-26.331 26.331h-114.103c-93.537 0-166.766-73.229-166.766-166.766v-114.103c0-14.543 11.789-26.331 26.331-26.331s26.332 11.789 26.332 26.331zM971.337 679.131v114.103c0 64.452-49.651 114.103-114.103 114.103h-114.103c-14.541 0-26.33 11.789-26.33 26.332s11.789 26.331 26.33 26.331h114.103c93.538 0 166.767-73.229 166.767-166.766v-114.103c0-14.543-11.789-26.331-26.33-26.331-14.545 0-26.334 11.789-26.334 26.331zM52.663 216.87v-114.103c0-64.452 49.651-114.103 114.103-114.103h114.103c14.543 0 26.331-11.789 26.331-26.334 0-14.541-11.789-26.33-26.331-26.33h-114.103c-93.537 0-166.766 73.229-166.766 166.767v114.103c0 14.541 11.789 26.33 26.331 26.33s26.332-11.789 26.332-26.33zM971.337 216.87v-114.103c0-64.452-49.651-114.103-114.103-114.103h-114.103c-14.541 0-26.33-11.789-26.33-26.334 0-14.541 11.789-26.33 26.33-26.33h114.103c93.538 0 166.767 73.229 166.767 166.767v114.103c0 14.541-11.789 26.33-26.33 26.33-14.545 0-26.334-11.789-26.334-26.33zM278.456 573.273v-73.186c0-15.147 11.462-27.426 25.6-27.426s25.6 12.279 25.6 27.426v73.186c0 15.148-11.462 27.429-25.6 27.429s-25.6-12.28-25.6-27.429zM700.634 573.273v-73.186c0-15.147 11.46-27.426 25.6-27.426 14.135 0 25.6 12.279 25.6 27.426v73.186c0 15.148-11.465 27.429-25.6 27.429-14.14 0-25.6-12.28-25.6-27.429zM331.929 203.738c49.935-46.605 110.413-70.123 180.071-70.123s130.138 23.518 180.070 70.123c10.88 10.155 11.469 27.209 1.314 38.089s-27.209 11.469-38.089 1.314c-39.889-37.231-87.202-55.633-143.296-55.633s-103.408 18.402-143.298 55.633c-10.88 10.155-27.932 9.566-38.086-1.314s-9.567-27.934 1.313-38.089zM512 573.754v-188.632c0-12.070-5.901-17.963-18.031-17.963h-17.899c-14.882 0-26.948-12.066-26.948-26.948s12.066-26.948 26.948-26.948h17.899c41.882 0 71.927 30.007 71.927 71.859v188.632c0 14.883-12.066 26.947-26.948 26.947s-26.948-12.065-26.948-26.947z" />
<glyph unicode="&#xe93e;" glyph-name="icon__favorite" data-tags="icon__favorite" d="M454.4 115.2l-73.6 67.2c-75.378 68.975-143.467 137.421-204.267 205.333-60.8 67.908-91.2 142.754-91.2 224.532 0 66.844 22.4 122.667 67.2 167.467s100.622 67.2 167.467 67.2c37.689 0 73.245-8 106.667-24 33.421-16 61.867-37.867 85.333-65.6 23.467 27.733 51.913 49.6 85.333 65.6s68.979 24 106.667 24c66.846 0 122.667-22.4 167.467-67.2s67.2-100.623 67.2-167.467c0-81.778-30.221-156.799-90.667-225.066s-129.067-136.892-205.867-205.867l-72.533-66.133c-16.354-15.646-35.554-23.467-57.6-23.467s-41.246 7.821-57.6 23.467zM471.467 671.999c-20.621 29.155-42.667 51.377-66.133 66.667s-51.911 22.933-85.333 22.933c-42.667 0-78.222-14.223-106.667-42.667s-42.667-64-42.667-106.667c0-36.978 13.155-76.267 39.467-117.866s57.778-81.958 94.4-121.067c36.622-39.113 74.311-75.733 113.067-109.867 38.754-34.133 70.221-62.225 94.4-84.267 24.179 22.042 55.646 50.133 94.4 84.267s76.446 70.754 113.067 109.867c36.621 39.108 68.087 79.467 94.4 121.067s39.467 80.888 39.467 117.866c0 42.667-14.221 78.222-42.667 106.667s-64 42.667-106.667 42.667c-33.421 0-61.867-7.645-85.333-22.933s-45.513-37.511-66.133-66.667c-4.979-7.111-11.021-12.445-18.133-16s-14.579-5.333-22.4-5.333c-7.821 0-15.287 1.777-22.4 5.333s-13.154 8.889-18.133 16z" />
<glyph unicode="&#xe93f;" glyph-name="icon__favorite-filled" data-tags="icon__favorite-filled" d="M454.4 115.2l-73.6 67.2c-75.378 68.975-143.467 137.421-204.267 205.333-60.8 67.908-91.2 142.754-91.2 224.532 0 66.844 22.4 122.667 67.2 167.467s100.622 67.2 167.467 67.2c37.689 0 73.245-8 106.667-24 33.421-16 61.867-37.867 85.333-65.6 23.467 27.733 51.913 49.6 85.333 65.6s68.979 24 106.667 24c66.846 0 122.667-22.4 167.467-67.2s67.2-100.623 67.2-167.467c0-81.778-30.221-156.799-90.667-225.066s-129.067-136.892-205.867-205.867l-72.533-66.133c-16.354-14.933-35.554-22.4-57.6-22.4s-41.246 7.467-57.6 22.4z" />
<glyph unicode="&#xe940;" glyph-name="icon__file-copy" data-tags="icon__file-copy" d="M810.667 149.333h-469.333c-23.467 0-43.555 8.354-60.267 25.067s-25.067 36.8-25.067 60.267v597.333c0 23.467 8.355 43.555 25.067 60.267s36.8 25.067 60.267 25.067h298.667l256-256v-426.667c0-23.467-8.354-43.554-25.067-60.267s-36.8-25.067-60.267-25.067zM597.333 618.667v213.333h-256v-597.333h469.333v384h-213.333zM170.667-21.333c-23.467 0-43.555 8.354-60.267 25.067s-25.067 36.8-25.067 60.267v597.333h85.333v-597.333h469.333v-85.333h-469.333z" />
<glyph unicode="&#xe941;" glyph-name="icon__find-in-page" data-tags="icon__find-in-page" d="M512 320c23.467 0 43.554 8.354 60.267 25.067s25.067 36.8 25.067 60.267c0 23.467-8.354 43.554-25.067 60.267s-36.8 25.067-60.267 25.067c-23.467 0-43.554-8.354-60.267-25.067s-25.067-36.8-25.067-60.267c0-23.467 8.354-43.554 25.067-60.267s36.8-25.067 60.267-25.067zM750.933 106.667l-152.533 152.533c-12.087-7.821-25.421-13.867-40-18.133s-30.046-6.4-46.4-6.4c-46.933 0-87.111 16.713-120.533 50.133s-50.133 73.6-50.133 120.533c0 46.933 16.711 87.113 50.133 120.533 33.422 33.422 73.6 50.133 120.533 50.133s87.113-16.711 120.533-50.133c33.421-33.421 50.133-73.6 50.133-120.533 0-16.354-2.133-31.646-6.4-45.867s-10.313-27.379-18.133-39.467l109.867-109.867v377.6l-168.533 201.6h-343.467v-682.667h494.933zM256 21.333c-23.467 0-43.555 8.354-60.267 25.067s-25.067 36.8-25.067 60.267v682.667c0 23.467 8.355 43.555 25.067 60.267s36.8 25.067 60.267 25.067h384l213.333-256v-512c0-23.467-8.354-43.554-25.067-60.267s-36.8-25.067-60.267-25.067h-512z" />
<glyph unicode="&#xe942;" glyph-name="icon__fingerprint" data-tags="icon__fingerprint" d="M138.678 548.266c-4.977 3.555-8 8-9.067 13.333s0.533 10.844 4.8 16.533c44.089 60.444 99.378 107.377 165.867 140.8s137.422 50.133 212.801 50.133c75.375 0 146.487-16.178 213.333-48.533 66.842-32.356 122.667-79.111 167.467-140.267 4.975-6.4 6.575-12.089 4.8-17.067-1.779-4.978-4.8-9.245-9.067-12.8s-9.246-5.156-14.933-4.8c-5.692 0.355-10.667 3.377-14.933 9.067-39.113 55.467-89.425 97.955-150.933 127.467-61.513 29.511-126.758 44.267-195.733 44.267-68.979 0-133.69-14.756-194.135-44.267s-110.577-72-150.4-127.467c-4.267-6.4-9.244-9.956-14.933-10.667s-10.667 0.711-14.933 4.267zM633.613 22.4c-73.958 18.487-134.4 55.287-181.333 110.4-46.935 55.108-70.401 122.487-70.401 202.133 0 35.554 12.8 65.421 38.4 89.6 25.601 24.175 56.535 36.267 92.801 36.267s67.2-12.092 92.8-36.267c25.6-24.179 38.4-54.046 38.4-89.6 0-23.467 8.887-43.2 26.667-59.2 17.775-16 38.754-24 62.933-24 24.175 0 44.8 8 61.867 24s25.6 35.733 25.6 59.2c0 82.487-30.225 151.821-90.667 207.999-60.446 56.177-132.625 84.267-216.533 84.267-83.913 0-156.090-28.089-216.535-84.267s-90.667-125.158-90.667-206.932c0-17.067 1.6-38.4 4.8-64s10.845-55.467 22.933-89.6c2.133-6.4 1.956-12.092-0.533-17.067-2.489-4.979-6.577-8.533-12.267-10.667s-11.2-1.958-16.533 0.533c-5.333 2.487-9.067 6.575-11.2 12.267-10.667 27.733-18.311 55.287-22.933 82.667-4.622 27.375-6.933 55.642-6.933 84.8 0 94.575 34.311 173.867 102.933 237.866s150.578 96 245.868 96c96 0 178.487-32 247.467-96 68.975-63.999 103.467-143.291 103.467-237.866 0-35.558-12.625-65.246-37.867-89.067-25.246-23.825-56-35.733-92.267-35.733s-67.379 11.908-93.333 35.733c-25.958 23.821-38.933 53.508-38.933 89.067 0 23.467-8.713 43.2-26.133 59.2-17.425 16-38.225 24-62.4 24-24.179 0-44.979-8-62.4-24-17.425-16-26.135-35.733-26.135-59.2 0-68.979 20.443-126.579 61.335-172.8 40.887-46.225 93.687-78.579 158.4-97.067 6.4-2.133 10.667-5.692 12.8-10.667 2.133-4.979 2.487-10.313 1.067-16-1.425-4.979-4.267-9.246-8.533-12.8-4.267-3.558-9.6-4.625-16-3.2zM277.345 771.199c-5.689-3.556-11.377-4.445-17.067-2.667s-9.955 5.511-12.8 11.2c-2.844 5.689-3.555 10.844-2.133 15.467s4.978 8.711 10.667 12.267c39.823 21.333 81.423 37.689 124.8 49.067s87.468 17.067 132.268 17.067c45.508 0 89.954-5.511 133.333-16.533 43.375-11.023 85.333-26.845 125.867-47.467 6.4-3.556 10.133-7.823 11.2-12.8s0.533-9.956-1.6-14.933c-2.133-4.978-5.692-8.889-10.667-11.733-4.979-2.845-11.025-2.489-18.133 1.067-37.692 19.2-76.625 33.955-116.8 44.267-40.179 10.311-81.246 15.467-123.2 15.467-41.246 0-81.779-4.8-121.601-14.4s-77.867-24.711-114.133-45.333zM403.212 37.333c-41.955 44.087-74.133 89.067-96.533 134.933s-33.6 100.087-33.6 162.667c0 64.708 23.467 119.287 70.4 163.733 46.933 44.443 103.468 66.666 169.601 66.666s123.021-22.223 170.667-66.666c47.642-44.446 71.467-99.025 71.467-163.733 0-6.4-1.958-11.558-5.867-15.467-3.913-3.913-9.067-5.867-15.467-5.867-5.692 0-10.667 1.954-14.933 5.867-4.267 3.908-6.4 9.067-6.4 15.467 0 53.333-19.733 97.954-59.2 133.867-39.467 35.908-86.225 53.867-140.267 53.867-54.046 0-100.445-17.958-139.201-53.867-38.755-35.913-58.133-80.533-58.133-133.867 0-57.6 9.956-106.492 29.867-146.667 19.911-40.179 49.067-80.533 87.468-121.067 4.267-4.267 6.4-9.246 6.4-14.933 0-5.692-2.133-10.667-6.4-14.933s-9.245-6.4-14.935-6.4c-5.689 0-10.667 2.133-14.933 6.4zM725.346 109.867c-63.292 0-118.225 21.333-164.8 64-46.579 42.667-69.867 96.354-69.867 161.067 0 5.687 1.954 10.667 5.867 14.933 3.908 4.267 9.067 6.4 15.467 6.4s11.554-2.133 15.467-6.4c3.908-4.267 5.867-9.246 5.867-14.933 0-53.333 19.2-97.067 57.6-131.2s83.2-51.2 134.4-51.2c4.267 0 10.308 0.354 18.133 1.067 7.821 0.708 16 1.775 24.533 3.2 6.4 1.421 11.908 0.533 16.533-2.667 4.621-3.2 7.642-8 9.067-14.4 1.421-5.692 0.354-10.667-3.2-14.933-3.558-4.267-8.179-7.113-13.867-8.533-12.8-3.558-24-5.513-33.6-5.867-9.6-0.358-15.467-0.533-17.6-0.533z" />
<glyph unicode="&#xe943;" glyph-name="icon__flag" data-tags="icon__flag" d="M256 64c-12.089 0-22.222 4.087-30.4 12.267s-12.267 18.313-12.267 30.4v640c0 12.089 4.089 22.222 12.267 30.4s18.311 12.267 30.4 12.267h306.133c9.954 0 18.846-3.2 26.667-9.6s12.8-14.578 14.933-24.533l10.667-51.2h196.267c12.087 0 22.221-4.089 30.4-12.267s12.267-18.311 12.267-30.4v-341.333c0-12.087-4.087-22.221-12.267-30.4s-18.313-12.267-30.4-12.267h-220.8c-9.954 0-18.846 3.2-26.667 9.6s-12.8 14.579-14.933 24.533l-10.667 51.2h-238.933v-256c0-12.087-4.089-22.221-12.267-30.4s-18.311-12.267-30.4-12.267zM625.067 362.667h142.933v256h-224l-17.067 85.333h-228.267v-256h309.333l17.067-85.333z" />
<glyph unicode="&#xe944;" glyph-name="icon__folder" data-tags="icon__folder" d="M170.667 106.667c-23.467 0-43.555 8.354-60.267 25.067s-25.067 36.8-25.067 60.267v512c0 23.467 8.355 43.555 25.067 60.267s36.8 25.067 60.267 25.067h256l85.333-85.333h341.333c23.467 0 43.554-8.355 60.267-25.067s25.067-36.8 25.067-60.267v-426.667c0-23.467-8.354-43.554-25.067-60.267s-36.8-25.067-60.267-25.067h-682.667zM170.667 704v-512h682.667v426.667h-376.533l-85.333 85.333h-220.8z" />
<glyph unicode="&#xe945;" glyph-name="icon__folder-open" data-tags="icon__folder-open" d="M170.667 106.667c-23.467 0-43.555 8.354-60.267 25.067s-25.067 36.8-25.067 60.267v512c0 23.467 8.355 43.555 25.067 60.267s36.8 25.067 60.267 25.067h256l85.333-85.333h341.333c23.467 0 43.554-8.355 60.267-25.067s25.067-36.8 25.067-60.267h-461.867l-85.333 85.333h-220.8v-512l102.4 341.333h729.6l-109.867-365.867c-5.687-18.487-16.179-33.246-31.467-44.267s-32.179-16.533-50.667-16.533h-640zM260.267 192h550.4l76.8 256h-550.4l-76.8-256z" />
<glyph unicode="&#xe946;" glyph-name="icon__forum" data-tags="icon__forum" d="M85.333 234.667v597.333c0 12.089 4.089 22.222 12.267 30.4s18.311 12.267 30.4 12.267h554.667c12.087 0 22.221-4.089 30.4-12.267s12.267-18.311 12.267-30.4v-384c0-12.087-4.087-22.221-12.267-30.4s-18.313-12.267-30.4-12.267h-426.667l-170.667-170.667zM298.667 192c-12.089 0-22.222 4.087-30.4 12.267s-12.267 18.313-12.267 30.4v85.333h554.667v384h85.333c12.087 0 22.221-4.089 30.4-12.267s12.267-18.311 12.267-30.4v-640l-170.667 170.667h-469.333zM640 789.333h-469.333v-348.8l50.133 50.133h419.2v298.667z" />
<glyph unicode="&#xe947;" glyph-name="icon__fullscreen" data-tags="icon__fullscreen" d="M256 149.333c-12.089 0-22.222 4.087-30.4 12.267s-12.267 18.313-12.267 30.4v128c0 12.087 4.089 22.221 12.267 30.4s18.311 12.267 30.4 12.267c12.089 0 22.222-4.087 30.4-12.267s12.267-18.313 12.267-30.4v-85.333h85.333c12.089 0 22.222-4.087 30.4-12.267s12.267-18.313 12.267-30.4c0-12.087-4.089-22.221-12.267-30.4s-18.311-12.267-30.4-12.267h-128zM256 533.333c-12.089 0-22.222 4.089-30.4 12.267s-12.267 18.311-12.267 30.4v128c0 12.089 4.089 22.222 12.267 30.4s18.311 12.267 30.4 12.267h128c12.089 0 22.222-4.089 30.4-12.267s12.267-18.311 12.267-30.4c0-12.089-4.089-22.222-12.267-30.4s-18.311-12.267-30.4-12.267h-85.333v-85.333c0-12.089-4.089-22.222-12.267-30.4s-18.311-12.267-30.4-12.267zM640 149.333c-12.087 0-22.221 4.087-30.4 12.267s-12.267 18.313-12.267 30.4c0 12.087 4.087 22.221 12.267 30.4s18.313 12.267 30.4 12.267h85.333v85.333c0 12.087 4.087 22.221 12.267 30.4s18.313 12.267 30.4 12.267c12.087 0 22.221-4.087 30.4-12.267s12.267-18.313 12.267-30.4v-128c0-12.087-4.087-22.221-12.267-30.4s-18.313-12.267-30.4-12.267h-128zM768 533.333c-12.087 0-22.221 4.089-30.4 12.267s-12.267 18.311-12.267 30.4v85.333h-85.333c-12.087 0-22.221 4.089-30.4 12.267s-12.267 18.311-12.267 30.4c0 12.089 4.087 22.222 12.267 30.4s18.313 12.267 30.4 12.267h128c12.087 0 22.221-4.089 30.4-12.267s12.267-18.311 12.267-30.4v-128c0-12.089-4.087-22.222-12.267-30.4s-18.313-12.267-30.4-12.267z" />
<glyph unicode="&#xe948;" glyph-name="icon__fullscreen-exit" data-tags="icon__fullscreen-exit" d="M384 149.333c-12.089 0-22.222 4.087-30.4 12.267s-12.267 18.313-12.267 30.4v85.333h-85.333c-12.089 0-22.222 4.087-30.4 12.267s-12.267 18.313-12.267 30.4c0 12.087 4.089 22.221 12.267 30.4s18.311 12.267 30.4 12.267h128c12.089 0 22.222-4.087 30.4-12.267s12.267-18.313 12.267-30.4v-128c0-12.087-4.089-22.221-12.267-30.4s-18.311-12.267-30.4-12.267zM256 533.333c-12.089 0-22.222 4.089-30.4 12.267s-12.267 18.311-12.267 30.4c0 12.089 4.089 22.222 12.267 30.4s18.311 12.267 30.4 12.267h85.333v85.333c0 12.089 4.089 22.222 12.267 30.4s18.311 12.267 30.4 12.267c12.089 0 22.222-4.089 30.4-12.267s12.267-18.311 12.267-30.4v-128c0-12.089-4.089-22.222-12.267-30.4s-18.311-12.267-30.4-12.267h-128zM640 149.333c-12.087 0-22.221 4.087-30.4 12.267s-12.267 18.313-12.267 30.4v128c0 12.087 4.087 22.221 12.267 30.4s18.313 12.267 30.4 12.267h128c12.087 0 22.221-4.087 30.4-12.267s12.267-18.313 12.267-30.4c0-12.087-4.087-22.221-12.267-30.4s-18.313-12.267-30.4-12.267h-85.333v-85.333c0-12.087-4.087-22.221-12.267-30.4s-18.313-12.267-30.4-12.267zM640 533.333c-12.087 0-22.221 4.089-30.4 12.267s-12.267 18.311-12.267 30.4v128c0 12.089 4.087 22.222 12.267 30.4s18.313 12.267 30.4 12.267c12.087 0 22.221-4.089 30.4-12.267s12.267-18.311 12.267-30.4v-85.333h85.333c12.087 0 22.221-4.089 30.4-12.267s12.267-18.311 12.267-30.4c0-12.089-4.087-22.222-12.267-30.4s-18.313-12.267-30.4-12.267h-128z" />
<glyph unicode="&#xe949;" glyph-name="icon__group" data-tags="icon__group" d="M85.333 106.667c-12.089 0-22.222 4.087-30.4 12.267s-12.267 18.313-12.267 30.4v76.8c0 24.179 6.222 46.4 18.667 66.667s28.978 35.733 49.6 46.4c44.089 22.046 88.889 38.579 134.4 49.6s91.733 16.533 138.667 16.533c46.933 0 93.154-5.513 138.667-16.533s90.313-27.554 134.4-49.6c20.621-10.667 37.154-26.133 49.6-46.4s18.667-42.487 18.667-66.667v-76.8c0-12.087-4.087-22.221-12.267-30.4s-18.313-12.267-30.4-12.267h-597.333zM790.4 106.667c6.4 4.979 11.379 11.2 14.933 18.667s5.333 15.821 5.333 25.067v84.267c0 31.287-8.713 61.333-26.133 90.133s-42.133 53.513-74.133 74.133c36.267-4.267 70.4-11.554 102.4-21.867s61.867-22.933 89.6-37.867c25.6-14.221 45.154-30.046 58.667-47.467s20.267-36.446 20.267-57.067v-85.333c0-12.087-4.087-22.221-12.267-30.4s-18.313-12.267-30.4-12.267h-148.267zM384 448c-46.933 0-87.111 16.713-120.533 50.133s-50.133 73.6-50.133 120.533c0 46.933 16.711 87.111 50.133 120.533s73.6 50.133 120.533 50.133c46.933 0 87.113-16.711 120.533-50.133s50.133-73.6 50.133-120.533c0-46.933-16.713-87.113-50.133-120.533s-73.6-50.133-120.533-50.133zM810.667 618.667c0-46.933-16.713-87.113-50.133-120.533s-73.6-50.133-120.533-50.133c-7.821 0-17.779 0.887-29.867 2.667s-22.046 3.733-29.867 5.867c19.2 22.754 33.954 48 44.267 75.733s15.467 56.533 15.467 86.4c0 29.867-5.154 58.667-15.467 86.4s-25.067 52.978-44.267 75.733c9.954 3.555 19.913 5.867 29.867 6.933s19.913 1.6 29.867 1.6c46.933 0 87.113-16.711 120.533-50.133s50.133-73.6 50.133-120.533zM128 192h512v34.133c0 7.821-1.954 14.933-5.867 21.333s-9.067 11.379-15.467 14.933c-38.4 19.2-77.154 33.6-116.267 43.2s-78.578 14.4-118.4 14.4c-39.822 0-79.289-4.8-118.4-14.4s-77.867-24-116.267-43.2c-6.4-3.554-11.555-8.533-15.467-14.933s-5.867-13.513-5.867-21.333v-34.133zM384 533.333c23.467 0 43.554 8.355 60.267 25.067s25.067 36.8 25.067 60.267c0 23.467-8.354 43.555-25.067 60.267s-36.8 25.067-60.267 25.067c-23.467 0-43.555-8.355-60.267-25.067s-25.067-36.8-25.067-60.267c0-23.467 8.355-43.555 25.067-60.267s36.8-25.067 60.267-25.067z" />
<glyph unicode="&#xe94a;" glyph-name="icon__groups" data-tags="icon__groups" d="M42.667 192c-12.089 0-22.222 4.087-30.4 12.267s-12.267 18.313-12.267 30.4v24.533c0 31.287 15.644 56.354 46.933 75.2s72.533 28.267 123.733 28.267c9.245 0 17.955-0.354 26.133-1.067s16.178-1.779 24-3.2c-9.955-14.221-17.245-29.513-21.867-45.867s-6.933-33.779-6.933-52.267v-68.267h-149.333zM298.667 192c-12.089 0-22.222 4.087-30.4 12.267s-12.267 18.313-12.267 30.4v25.6c0 46.221 23.645 83.733 70.933 112.533s108.979 43.2 185.067 43.2c76.8 0 138.667-14.4 185.6-43.2s70.4-66.313 70.4-112.533v-25.6c0-12.087-4.087-22.221-12.267-30.4s-18.313-12.267-30.4-12.267h-426.667zM832 192v68.267c0 18.487-2.487 35.913-7.467 52.267s-12.087 31.646-21.333 45.867c7.821 1.421 15.821 2.487 24 3.2s16.887 1.067 26.133 1.067c51.2 0 92.446-9.421 123.733-28.267s46.933-43.913 46.933-75.2v-24.533c0-12.087-4.087-22.221-12.267-30.4s-18.313-12.267-30.4-12.267h-149.333zM512 330.667c-40.533 0-76.8-5.513-108.8-16.533s-50.845-23.287-56.533-36.8h330.667c-6.4 14.221-25.421 26.667-57.067 37.333s-67.733 16-108.267 16zM170.667 405.333c-23.467 0-43.555 8.354-60.267 25.067s-25.067 36.8-25.067 60.267c0 23.467 8.355 43.555 25.067 60.267s36.8 25.067 60.267 25.067c23.467 0 43.555-8.355 60.267-25.067s25.067-36.8 25.067-60.267c0-23.467-8.355-43.554-25.067-60.267s-36.8-25.067-60.267-25.067zM853.333 405.333c-23.467 0-43.554 8.354-60.267 25.067s-25.067 36.8-25.067 60.267c0 23.467 8.354 43.555 25.067 60.267s36.8 25.067 60.267 25.067c23.467 0 43.554-8.355 60.267-25.067s25.067-36.8 25.067-60.267c0-23.467-8.354-43.554-25.067-60.267s-36.8-25.067-60.267-25.067zM512 448c-35.554 0-65.779 12.446-90.667 37.333s-37.333 55.111-37.333 90.667 12.445 65.778 37.333 90.667c24.887 24.889 55.113 37.333 90.667 37.333s65.779-12.445 90.667-37.333c24.887-24.889 37.333-55.111 37.333-90.667s-12.446-65.779-37.333-90.667c-24.887-24.887-55.113-37.333-90.667-37.333zM512 618.667c-12.087 0-22.221-4.089-30.4-12.267s-12.267-18.311-12.267-30.4c0-12.089 4.087-22.222 12.267-30.4s18.313-12.267 30.4-12.267c12.087 0 22.221 4.089 30.4 12.267s12.267 18.311 12.267 30.4c0 12.089-4.087 22.222-12.267 30.4s-18.313 12.267-30.4 12.267z" />
<glyph unicode="&#xe94b;" glyph-name="icon__headphones" data-tags="icon__headphones" d="M213.333 64c-23.467 0-43.555 8.354-60.267 25.067s-25.067 36.8-25.067 60.267v298.667c0 53.333 10.133 103.289 30.4 149.867s47.645 87.111 82.133 121.6c34.489 34.489 75.022 61.867 121.6 82.133s96.533 30.4 149.867 30.4c53.333 0 103.287-10.133 149.867-30.4s87.113-47.645 121.6-82.133c34.487-34.489 61.867-75.022 82.133-121.6s30.4-96.533 30.4-149.867v-298.667c0-23.467-8.354-43.554-25.067-60.267s-36.8-25.067-60.267-25.067h-85.333c-23.467 0-43.554 8.354-60.267 25.067s-25.067 36.8-25.067 60.267v170.667c0 23.467 8.354 43.554 25.067 60.267s36.8 25.067 60.267 25.067h85.333v42.667c0 83.2-28.979 153.778-86.933 211.733s-128.533 86.933-211.733 86.933c-83.2 0-153.778-28.978-211.733-86.933s-86.933-128.533-86.933-211.733v-42.667h85.333c23.467 0 43.555-8.354 60.267-25.067s25.067-36.8 25.067-60.267v-170.667c0-23.467-8.355-43.554-25.067-60.267s-36.8-25.067-60.267-25.067h-85.333zM213.333 149.333h85.333v170.667h-85.333v-170.667zM725.333 149.333h85.333v170.667h-85.333v-170.667z" />
<glyph unicode="&#xe94c;" glyph-name="icon__hearing" data-tags="icon__hearing" d="M726.396 21.333c-44.087 0-80.179 11.025-108.267 33.067-28.087 22.046-49.6 54.4-64.533 97.067-12.087 35.558-23.646 60.446-34.667 74.667-11.021 14.225-36.446 36.979-76.267 68.267-44.089 35.558-78.933 75.733-104.533 120.533s-38.4 98.492-38.4 161.068c0 84.623 28.623 155.556 85.867 212.8 57.246 57.245 128.179 85.867 212.8 85.867 76.8 0 142.579-23.822 197.333-71.467s87.467-108.089 98.133-181.333c1.421-12.089-1.779-22.755-9.6-32s-18.487-13.867-32-13.867c-9.954 0-19.2 3.556-27.733 10.667s-13.867 16.356-16 27.733c-8.533 50.489-32.354 92.267-71.467 125.333s-85.333 49.6-138.667 49.6c-60.446 0-111.113-20.444-152-61.333-40.889-40.889-61.333-91.555-61.333-152 0-48.355 9.6-89.601 28.8-123.735s46.579-64.708 82.133-91.733c36.979-27.021 65.779-53.333 86.4-78.933s35.913-53.333 45.867-83.2c9.954-31.287 21.867-54.4 35.733-69.333s34.667-22.4 62.4-22.4c17.067 0 32.533 4.625 46.4 13.867 13.867 9.246 24.354 21.333 31.467 36.267 4.979 10.667 11.2 19.2 18.667 25.6s15.821 9.6 25.067 9.6c14.221 0 25.6-4.975 34.133-14.933 8.533-9.954 11.021-20.975 7.467-33.067-10.667-35.554-30.933-64.887-60.8-88-29.867-23.108-64-34.667-102.4-34.667zM230.396 284.8c-32 40.533-56.889 85.513-74.667 134.933-17.777 49.425-26.667 101.513-26.667 156.268 0 56.178 9.423 109.511 28.267 160s44.267 96 76.267 136.533c8.533 10.667 18.845 16.533 30.933 17.6s22.756-2.667 32-11.2c7.823-7.822 12.089-17.6 12.8-29.333s-2.844-22.577-10.667-32.533c-27.022-33.422-47.822-70.4-62.4-110.933s-21.867-83.911-21.867-130.133c0-44.801 7.289-87.468 21.867-128.001s35.378-77.508 62.4-110.933c7.823-9.954 11.556-20.8 11.2-32.533s-4.8-21.508-13.333-29.333c-9.244-8.533-20.444-11.733-33.6-9.6s-24 8.533-32.533 19.2zM598.396 469.333c-29.867 0-55.113 10.492-75.733 31.467-20.621 20.979-30.933 46.046-30.933 75.201 0 29.867 10.313 55.111 30.933 75.733s45.867 30.933 75.733 30.933c29.867 0 55.113-10.311 75.733-30.933s30.933-45.867 30.933-75.733c0-29.155-10.313-54.222-30.933-75.201-20.621-20.975-45.867-31.467-75.733-31.467z" />
<glyph unicode="&#xe94d;" glyph-name="icon__help" data-tags="icon__help" d="M509.867 192c14.933 0 27.554 5.154 37.867 15.467s15.467 22.933 15.467 37.867c0 14.933-5.154 27.554-15.467 37.867s-22.933 15.467-37.867 15.467c-14.933 0-27.554-5.154-37.867-15.467s-15.467-22.933-15.467-37.867c0-14.933 5.154-27.554 15.467-37.867s22.933-15.467 37.867-15.467zM512 21.333c-59.021 0-114.489 11.2-166.4 33.6s-97.067 52.8-135.467 91.2c-38.4 38.4-68.8 83.554-91.2 135.467s-33.6 107.379-33.6 166.4c0 59.021 11.2 114.489 33.6 166.4s52.8 97.067 91.2 135.467c38.4 38.4 83.555 68.8 135.467 91.2s107.379 33.6 166.4 33.6c59.021 0 114.487-11.2 166.4-33.6s97.067-52.8 135.467-91.2c38.4-38.4 68.8-83.555 91.2-135.467s33.6-107.379 33.6-166.4c0-59.021-11.2-114.487-33.6-166.4s-52.8-97.067-91.2-135.467c-38.4-38.4-83.554-68.8-135.467-91.2s-107.379-33.6-166.4-33.6zM512 106.667c95.287 0 176 33.067 242.133 99.2s99.2 146.846 99.2 242.133c0 95.289-33.067 176-99.2 242.133s-146.846 99.2-242.133 99.2c-95.289 0-176-33.067-242.133-99.2s-99.2-146.845-99.2-242.133c0-95.287 33.067-176 99.2-242.133s146.845-99.2 242.133-99.2zM516.267 631.467c17.779 0 33.246-5.689 46.4-17.067s19.733-25.6 19.733-42.667c0-15.645-4.8-29.511-14.4-41.6-9.6-12.087-20.446-23.467-32.533-34.133-16.354-14.221-30.754-29.867-43.2-46.933s-18.667-36.267-18.667-57.6c0-9.954 3.733-18.313 11.2-25.067s16.179-10.133 26.133-10.133c10.667 0 19.733 3.554 27.2 10.667s12.267 16 14.4 26.667c2.846 14.933 9.246 28.267 19.2 40s20.621 22.933 32 33.6c16.354 15.646 30.4 32.713 42.133 51.2 11.733 18.489 17.6 39.111 17.6 61.867 0 36.267-14.754 65.955-44.267 89.067s-63.821 34.667-102.933 34.667c-27.021 0-52.8-5.689-77.333-17.067s-43.2-28.8-56-52.267c-4.978-8.533-6.578-17.6-4.8-27.2s6.578-16.889 14.4-21.867c9.955-5.689 20.267-7.467 30.933-5.333s19.554 8.178 26.667 18.133c7.821 10.667 17.6 18.845 29.333 24.533s24 8.533 36.8 8.533z" />
<glyph unicode="&#xe94e;" glyph-name="icon__history" data-tags="icon__history" d="M554.667 465.067l106.667-106.667c7.821-7.821 11.733-17.779 11.733-29.867s-3.913-22.046-11.733-29.867c-7.821-7.821-17.779-11.733-29.867-11.733s-22.046 3.913-29.867 11.733l-119.467 119.467c-4.267 4.267-7.467 9.067-9.6 14.4s-3.2 10.846-3.2 16.533v169.6c0 12.089 4.087 22.222 12.267 30.4s18.313 12.267 30.4 12.267c12.087 0 22.221-4.089 30.4-12.267s12.267-18.311 12.267-30.4v-153.6zM512 64c-86.045 0-163.2 25.421-231.467 76.267s-114.133 117.154-137.6 198.933c-3.555 12.8-2.311 24.887 3.733 36.267s15.467 18.487 28.267 21.333c12.089 2.846 22.933 0.179 32.533-8s16.178-18.313 19.733-30.4c18.489-62.579 54.222-113.067 107.2-151.467s112.179-57.6 177.6-57.6c83.2 0 153.779 28.979 211.733 86.933s86.933 128.533 86.933 211.733c0 83.2-28.979 153.778-86.933 211.733s-128.533 86.933-211.733 86.933c-49.067 0-94.933-11.378-137.6-34.133s-78.578-54.045-107.733-93.867h74.667c12.089 0 22.222-4.089 30.4-12.267s12.267-18.311 12.267-30.4c0-12.089-4.089-22.222-12.267-30.4s-18.311-12.267-30.4-12.267h-170.667c-12.089 0-22.222 4.089-30.4 12.267s-12.267 18.311-12.267 30.4v170.667c0 12.089 4.089 22.222 12.267 30.4s18.311 12.267 30.4 12.267c12.089 0 22.222-4.089 30.4-12.267s12.267-18.311 12.267-30.4v-57.6c36.267 45.511 80.533 80.711 132.8 105.6s107.554 37.333 165.867 37.333c53.333 0 103.287-10.133 149.867-30.4s87.113-47.645 121.6-82.133c34.487-34.489 61.867-75.022 82.133-121.6s30.4-96.533 30.4-149.867c0-53.333-10.133-103.287-30.4-149.867s-47.646-87.113-82.133-121.6c-34.487-34.487-75.021-61.867-121.6-82.133s-96.533-30.4-149.867-30.4z" />
<glyph unicode="&#xe94f;" glyph-name="icon__home" data-tags="icon__home" d="M256 149.333h128v256h256v-256h128v384l-256 192-256-192v-384zM256 64c-23.467 0-43.555 8.354-60.267 25.067s-25.067 36.8-25.067 60.267v384c0 13.511 3.022 26.311 9.067 38.4s14.4 22.045 25.067 29.867l256 192c7.821 5.689 16 9.955 24.533 12.8s17.421 4.267 26.667 4.267c9.246 0 18.133-1.422 26.667-4.267s16.713-7.111 24.533-12.8l256-192c10.667-7.822 19.021-17.778 25.067-29.867s9.067-24.889 9.067-38.4v-384c0-23.467-8.354-43.554-25.067-60.267s-36.8-25.067-60.267-25.067h-213.333v256h-85.333v-256h-213.333z" />
<glyph unicode="&#xe950;" glyph-name="icon__hourglass-empty" data-tags="icon__hourglass-empty" d="M341.333 106.667h341.333v128c0 46.933-16.713 87.113-50.133 120.533s-73.6 50.133-120.533 50.133c-46.933 0-87.111-16.713-120.533-50.133s-50.133-73.6-50.133-120.533v-128zM512 490.667c46.933 0 87.113 16.713 120.533 50.133 33.421 33.422 50.133 73.6 50.133 120.533v128h-341.333v-128c0-46.933 16.711-87.111 50.133-120.533 33.422-33.421 73.6-50.133 120.533-50.133zM170.667 21.333v85.333h85.333v128c0 43.379 10.133 84.087 30.4 122.133s48.533 68.446 84.8 91.2c-36.267 22.754-64.533 53.154-84.8 91.2-20.267 38.045-30.4 78.755-30.4 122.133v128h-85.333v85.333h682.667v-85.333h-85.333v-128c0-43.378-10.133-84.089-30.4-122.133-20.267-38.046-48.533-68.446-84.8-91.2 36.267-22.754 64.533-53.154 84.8-91.2s30.4-78.754 30.4-122.133v-128h85.333v-85.333h-682.667z" />
<glyph unicode="&#xe951;" glyph-name="icon__how-to-reg" data-tags="icon__how-to-reg" d="M128 106.667c-12.089 0-22.222 4.087-30.4 12.267s-12.267 18.313-12.267 30.4v76.8c0 23.467 6.045 45.513 18.133 66.133s28.8 36.267 50.133 46.933c36.267 18.487 77.155 34.133 122.667 46.933s95.645 19.2 150.4 19.2c21.333 0 42.133-1.067 62.4-3.2s40-5.333 59.2-9.6l-74.667-74.667c-7.821 1.421-15.467 2.133-22.933 2.133h-24c-50.489 0-95.822-6.046-136-18.133s-73.067-25.246-98.667-39.467c-6.4-3.554-11.555-8.533-15.467-14.933s-5.867-13.513-5.867-21.333v-34.133h266.667l85.333-85.333h-394.667zM663.467 107.733c-5.687 0-11.021 0.887-16 2.667s-9.6 4.8-13.867 9.067l-87.467 87.467c-7.821 7.821-11.733 17.779-11.733 29.867s3.913 22.046 11.733 29.867c7.821 7.821 17.779 11.733 29.867 11.733s22.046-3.913 29.867-11.733l57.6-57.6 185.6 185.6c7.821 7.821 17.779 11.733 29.867 11.733s22.046-3.913 29.867-11.733c7.821-7.821 11.733-17.779 11.733-29.867s-3.913-22.046-11.733-29.867l-215.467-215.467c-4.267-4.267-8.887-7.287-13.867-9.067s-10.313-2.667-16-2.667zM426.667 448c-46.933 0-87.111 16.713-120.533 50.133s-50.133 73.6-50.133 120.533c0 46.933 16.711 87.111 50.133 120.533s73.6 50.133 120.533 50.133c46.933 0 87.113-16.711 120.533-50.133s50.133-73.6 50.133-120.533c0-46.933-16.713-87.113-50.133-120.533s-73.6-50.133-120.533-50.133zM426.667 533.333c23.467 0 43.554 8.355 60.267 25.067s25.067 36.8 25.067 60.267c0 23.467-8.354 43.555-25.067 60.267s-36.8 25.067-60.267 25.067c-23.467 0-43.555-8.355-60.267-25.067s-25.067-36.8-25.067-60.267c0-23.467 8.355-43.555 25.067-60.267s36.8-25.067 60.267-25.067z" />
<glyph unicode="&#xe952;" glyph-name="icon__image" data-tags="icon__image" d="M298.667 234.667h426.667c8.533 0 14.933 3.913 19.2 11.733s3.554 15.287-2.133 22.4l-117.333 156.8c-4.267 5.687-9.954 8.533-17.067 8.533s-12.8-2.846-17.067-8.533l-110.933-148.267-78.933 105.6c-4.267 5.687-9.955 8.533-17.067 8.533s-12.8-2.846-17.067-8.533l-85.333-114.133c-5.689-7.113-6.4-14.579-2.133-22.4s10.667-11.733 19.2-11.733zM213.333 64c-23.467 0-43.555 8.354-60.267 25.067s-25.067 36.8-25.067 60.267v597.333c0 23.467 8.355 43.555 25.067 60.267s36.8 25.067 60.267 25.067h597.333c23.467 0 43.554-8.355 60.267-25.067s25.067-36.8 25.067-60.267v-597.333c0-23.467-8.354-43.554-25.067-60.267s-36.8-25.067-60.267-25.067h-597.333zM213.333 149.333h597.333v597.333h-597.333v-597.333z" />
<glyph unicode="&#xe953;" glyph-name="icon__inbox" data-tags="icon__inbox" d="M213.333 64c-23.467 0-43.555 8.354-60.267 25.067s-25.067 36.8-25.067 60.267v597.333c0 23.467 8.355 43.555 25.067 60.267s36.8 25.067 60.267 25.067h597.333c23.467 0 43.554-8.355 60.267-25.067s25.067-36.8 25.067-60.267v-597.333c0-23.467-8.354-43.554-25.067-60.267s-36.8-25.067-60.267-25.067h-597.333zM213.333 149.333h597.333v128h-128c-21.333-27.021-46.754-48-76.267-62.933s-60.979-22.4-94.4-22.4c-33.421 0-64.887 7.467-94.4 22.4-29.511 14.933-54.933 35.913-76.267 62.933h-128v-128zM512 277.333c22.754 0 43.733 5.867 62.933 17.6s34.846 27.2 46.933 46.4c4.267 6.4 9.6 11.554 16 15.467s13.513 5.867 21.333 5.867h151.467v384h-597.333v-384h151.467c7.822 0 14.933-1.954 21.333-5.867s11.733-9.067 16-15.467c12.089-19.2 27.733-34.667 46.933-46.4s40.179-17.6 62.933-17.6z" />
</font>
</defs>
</svg>
