<svg id="Calque_1" data-name="Calque 1" xmlns="http://www.w3.org/2000/svg" viewBox="0 0 66 66"><defs><style>.cls-1{fill:#0a2d82;}.cls-2{fill:#fff;}</style></defs><title>icon-close</title><path class="cls-1" d="M34,66.5A32.5,32.5,0,1,1,66.5,34,32.54,32.54,0,0,1,34,66.5Z" transform="translate(-1 -1)"/><path class="cls-1" d="M34,2A32,32,0,1,1,2,34,32,32,0,0,1,34,2m0-1A33,33,0,1,0,67,34,33,33,0,0,0,34,1Z" transform="translate(-1 -1)"/><path class="cls-2" d="M16.91,16.91a2.55,2.55,0,0,1,3.6,0L34,30.4,47.48,16.91a2.55,2.55,0,0,1,3.6,3.6L37.6,34,51.09,47.48a2.55,2.55,0,0,1-3.6,3.6L34,37.6,20.52,51.09a2.55,2.55,0,0,1-3.6-3.6L30.4,34,16.91,20.52A2.55,2.55,0,0,1,16.91,16.91Z" transform="translate(-1 -1)"/></svg>